<?xml version="1.0" encoding="UTF-8"?>
<svg id="Layer_1" xmlns="http://www.w3.org/2000/svg" version="1.1" viewBox="0 0 229.28 247">
  <!-- Generator: Adobe Illustrator 30.1.0, SVG Export Plug-In . SVG Version: 2.1.1 Build 136)  -->
  <defs>
    <style>
      .st0 {
        fill-rule: evenodd;
      }

      .st0, .st1 {
        fill: #553f99;
      }

      .st2 {
        fill: #282525;
      }
    </style>
  </defs>
  <g>
    <g>
      <g>
        <polygon class="st1" points="58.81 189.88 59.69 189 59.15 188.46 57.73 189.88 59.15 191.3 59.69 190.76 58.81 189.88"/>
        <g>
          <polygon class="st1" points="62.86 188.46 62.32 189 63.2 189.88 62.32 190.76 62.86 191.3 64.28 189.88 62.86 188.46"/>
          <polygon class="st1" points="62.03 187.7 61.25 187.7 60.33 192.05 61.12 192.05 62.03 187.7"/>
        </g>
      </g>
      <g>
        <g>
          <g>
            <path class="st0" d="M69.04,197.92h0c.15-.57-.19-1.16-.76-1.3-.45-.12-.93.07-1.18.47-.25-.08-.52-.15-.79-.22.13-.45.23-.91.31-1.38.33-1.95.03-3.3-.86-3.81-1.12-.65-2.92.23-4.76,2.12-1.84-1.89-3.64-2.76-4.76-2.12-.63.36-.97,1.15-.99,2.29-.57.16-.9.74-.75,1.31.12.45.52.77.99.79.06.26.12.52.2.79-2.56.65-4.22,1.77-4.22,3.07s1.66,2.41,4.22,3.07c-.71,2.54-.57,4.54.55,5.18.26.14.55.22.84.21.48,0,1.03-.17,1.64-.5.13.13.3.22.47.27.09.02.18.04.28.04.59,0,1.07-.48,1.07-1.07,0-.17-.04-.34-.12-.5.2-.18.39-.37.59-.57.33.34.67.66,1.03.96,1.09.91,2.09,1.38,2.89,1.38.29,0,.58-.07.84-.21.89-.51,1.19-1.86.86-3.81-.08-.46-.19-.92-.31-1.38.46-.11.91-.25,1.35-.42,1.85-.69,2.87-1.63,2.87-2.65,0-.73-.51-1.42-1.49-2ZM62.33,193.18h0c1.35-1.12,2.52-1.52,3.22-1.12.7.4.93,1.63.64,3.35-.08.45-.18.9-.31,1.35-.92-.2-1.86-.34-2.8-.42-.54-.78-1.13-1.52-1.76-2.22.32-.33.66-.64,1.01-.94ZM57.11,199.4h0s0,0,0,0c-.33-.72-.61-1.46-.85-2.22.78-.17,1.56-.29,2.35-.37-.27.41-.53.83-.79,1.27-.25.44-.49.88-.71,1.32,0,0,0,0,0,0ZM57.82,201.76c.25.44.52.86.79,1.27,0,0,0,0,0,0h0s0,0,0,0c-.79-.08-1.58-.2-2.35-.37.24-.76.53-1.5.86-2.22.22.44.46.88.71,1.32ZM58.21,201.53c-.31-.54-.59-1.08-.85-1.61.26-.54.54-1.08.85-1.61.31-.54.63-1.05.97-1.55.59-.04,1.2-.07,1.82-.07s1.23.02,1.83.07c.33.49.66,1.01.97,1.55.31.54.6,1.08.85,1.61-.26.54-.54,1.08-.85,1.61h0c-.31.54-.63,1.05-.97,1.55-.59.04-1.2.07-1.82.07s-1.23-.02-1.82-.07c-.33-.49-.66-1.01-.97-1.55ZM64.19,201.76c.25-.44.49-.88.71-1.32h0c.33.72.62,1.46.85,2.22-.78.17-1.56.29-2.35.37.27-.41.53-.84.79-1.27ZM64.19,198.08h0c-.26-.44-.52-.87-.78-1.27.79.08,1.57.2,2.35.37-.24.76-.53,1.5-.85,2.22-.22-.44-.46-.88-.71-1.32ZM61.01,194.44c.54.59,1.04,1.2,1.5,1.85-.49-.03-.99-.04-1.5-.04-.51,0-1.01.01-1.5.04.46-.65.96-1.26,1.5-1.85ZM56.46,192.06c.7-.4,1.88,0,3.22,1.12.35.29.69.61,1.01.94-.64.7-1.23,1.44-1.76,2.22-.94.07-1.88.21-2.8.42-.07-.26-.14-.52-.19-.77,0,0,0,0,0,0h0s0,0,0,0c.35-.14.6-.46.66-.83.09-.58-.31-1.13-.89-1.22.02-.71.17-1.54.76-1.88ZM54.5,202.15h0c-1.64-.61-2.58-1.42-2.58-2.23s.94-1.62,2.58-2.23c.43-.16.87-.29,1.32-.41.29.9.63,1.78,1.04,2.63-.41.85-.76,1.74-1.04,2.64-.45-.11-.89-.25-1.32-.41ZM60.13,206.28c-.3-.23-.69-.29-1.04-.15-.55.21-.82.83-.61,1.38-.62.34-1.42.62-2.01.28-.7-.4-.93-1.63-.64-3.35.08-.45.18-.9.31-1.34.92.2,1.86.34,2.8.42.54.78,1.13,1.52,1.76,2.22-.19.2-.38.38-.57.55ZM61,205.4c-.54-.59-1.03-1.2-1.5-1.85.49.03.99.04,1.5.04s1.01-.01,1.5-.04c0,0,0,0,0,0h0s0,0,0,0c-.46.65-.96,1.26-1.5,1.85ZM65.55,207.79c-.7.41-1.88,0-3.22-1.12-.35-.3-.69-.61-1.01-.94.64-.7,1.23-1.44,1.76-2.22.94-.08,1.88-.22,2.8-.42.13.44.23.89.31,1.35.29,1.72.06,2.94-.64,3.35ZM67.51,202.15h0c-.43.16-.87.29-1.32.41-.28-.9-.63-1.78-1.04-2.64.41-.85.75-1.73,1.04-2.64.26.07.52.14.76.21-.05.37.1.74.39.98.46.37,1.13.3,1.5-.16.61.37,1.25.92,1.25,1.6,0,.81-.94,1.62-2.58,2.23Z"/>
            <path class="st1" d="M64.93,191.46c.31,0,.59.07.84.21.89.51,1.19,1.86.86,3.81-.08.46-.19.92-.31,1.38.27.07.54.14.79.22.2-.32.54-.5.91-.5.09,0,.18.01.27.03.57.15.91.73.76,1.3h0c.98.59,1.49,1.28,1.49,2,0,1.02-1.02,1.96-2.87,2.65-.44.16-.89.3-1.35.42.13.45.23.91.31,1.38.33,1.95.03,3.3-.86,3.81-.25.14-.53.21-.81.21,0,0-.02,0-.03,0-.8,0-1.79-.47-2.89-1.38-.36-.3-.71-.62-1.03-.96-.2.2-.39.39-.59.57.08.15.12.32.12.5,0,.59-.48,1.07-1.07,1.07-.09,0-.19-.01-.28-.04-.18-.05-.34-.14-.47-.27-.6.33-1.16.5-1.64.5,0,0-.02,0-.03,0-.29,0-.57-.07-.81-.21-1.12-.65-1.26-2.64-.55-5.18-2.56-.65-4.22-1.77-4.22-3.07s1.66-2.42,4.22-3.07c-.08-.27-.14-.53-.2-.79-.47-.02-.87-.34-.99-.79-.16-.57.18-1.16.75-1.31.02-1.14.36-1.93.99-2.29.25-.14.53-.21.84-.21,1.08,0,2.49.86,3.93,2.33,1.44-1.47,2.85-2.33,3.93-2.33M55.94,195.98h0s0,0,0,0c0,0,0,0,0,0h0s0,0,0,0c.06.25.12.5.19.77.92-.2,1.86-.34,2.8-.42.54-.78,1.12-1.52,1.76-2.22-.32-.33-.66-.64-1.01-.94-1.01-.83-1.91-1.27-2.6-1.27-.23,0-.44.05-.62.15-.59.34-.75,1.17-.76,1.88.58.09.98.64.89,1.22-.06.37-.31.69-.66.83M62.33,193.18h0c-.35.29-.69.61-1.01.94.64.7,1.23,1.44,1.76,2.22.94.08,1.88.22,2.8.42.13-.44.23-.89.31-1.35.29-1.72.06-2.94-.64-3.35-.18-.1-.39-.15-.62-.15-.69,0-1.6.44-2.6,1.27M59.51,196.29c.49-.03.99-.04,1.5-.04.5,0,1.01.01,1.5.04-.46-.65-.96-1.27-1.5-1.85-.54.59-1.04,1.2-1.5,1.85M61.01,203.15c.62,0,1.23-.02,1.82-.07.34-.49.66-1.01.97-1.55h0c.31-.54.6-1.08.85-1.61-.26-.54-.54-1.08-.85-1.61-.31-.54-.63-1.05-.97-1.55-.6-.04-1.21-.07-1.83-.07s-1.23.02-1.82.07c-.33.49-.66,1.01-.97,1.55-.31.54-.6,1.08-.85,1.61.26.54.55,1.08.85,1.61.31.54.63,1.05.97,1.55.59.04,1.2.07,1.82.07M57.11,199.4h0s0,0,0,0c.22-.44.46-.87.71-1.32.25-.44.52-.87.79-1.27-.79.08-1.57.2-2.35.37.24.76.53,1.5.85,2.22,0,0,0,0,0,0M64.9,199.4c.33-.72.61-1.46.85-2.22-.78-.17-1.56-.29-2.35-.37.27.41.53.83.78,1.27h0c.25.44.49.88.71,1.32M54.5,202.15h0c.43.16.87.29,1.32.41.29-.9.63-1.78,1.04-2.64-.41-.85-.75-1.73-1.04-2.63-.45.11-.89.25-1.32.41-1.64.61-2.58,1.42-2.58,2.23s.94,1.62,2.58,2.23M66.19,202.56c.45-.11.89-.25,1.32-.41h0c1.64-.61,2.58-1.42,2.58-2.23,0-.68-.64-1.23-1.25-1.6-.21.26-.52.4-.83.4-.24,0-.47-.08-.67-.24-.29-.24-.44-.61-.39-.98-.24-.08-.5-.15-.76-.21-.28.9-.63,1.78-1.04,2.64.41.85.75,1.74,1.04,2.64M58.61,203.03s0,0,0,0h0s0,0,0,0c-.27-.41-.53-.83-.79-1.27-.25-.44-.49-.88-.71-1.32-.33.72-.62,1.46-.86,2.22.78.17,1.56.29,2.35.37M63.4,203.03c.79-.08,1.58-.2,2.35-.37-.24-.76-.53-1.5-.85-2.22h0c-.22.44-.46.88-.71,1.32-.25.44-.51.86-.79,1.27M64.93,207.94c.23,0,.44-.05.62-.15.7-.41.93-1.63.64-3.35-.08-.45-.18-.9-.31-1.35-.92.2-1.86.34-2.8.42-.54.78-1.13,1.52-1.76,2.22.32.33.66.65,1.01.94,1,.83,1.91,1.27,2.6,1.27M57.09,207.94c.46,0,.97-.2,1.39-.43-.21-.55.06-1.17.61-1.38.13-.05.26-.07.39-.07.23,0,.47.08.66.23.19-.17.38-.36.57-.55-.64-.7-1.23-1.44-1.76-2.22-.94-.07-1.88-.21-2.8-.42-.13.44-.23.89-.31,1.34-.29,1.72-.06,2.94.64,3.35.19.11.4.16.62.16M61.01,203.6c-.51,0-1.01-.01-1.5-.04.46.65.96,1.26,1.5,1.85.54-.59,1.03-1.2,1.5-1.85,0,0,0,0,0,0h0s0,0,0,0c-.49.03-.99.04-1.5.04M64.93,191.38v.08-.08c-1.08,0-2.47.81-3.93,2.29-1.46-1.48-2.85-2.29-3.93-2.29-.33,0-.62.07-.88.22-.64.37-1,1.17-1.03,2.3-.58.19-.91.8-.75,1.4.13.47.53.8,1,.84.05.21.1.43.17.66-1.25.33-2.29.77-3.02,1.28-.77.55-1.18,1.19-1.18,1.84s.41,1.29,1.18,1.84c.72.51,1.76.96,3.01,1.28-.34,1.25-.48,2.37-.4,3.25.09.95.44,1.62,1,1.94.26.15.56.22.86.22,0,0,.02,0,.03,0,.48,0,1.03-.16,1.62-.49.13.12.29.21.47.25.1.03.2.04.3.04.63,0,1.15-.52,1.15-1.15,0-.17-.04-.33-.11-.48.16-.15.33-.31.49-.47.31.32.64.62.98.91,1.1.91,2.12,1.39,2.94,1.39,0,0,.02,0,.03,0,.3,0,.59-.08.85-.22.92-.53,1.24-1.91.9-3.9-.08-.44-.17-.88-.29-1.3.43-.11.86-.24,1.28-.4,1.89-.7,2.92-1.67,2.92-2.73,0-.74-.51-1.45-1.48-2.04.06-.28.01-.57-.13-.81-.16-.27-.4-.45-.7-.53-.1-.02-.19-.04-.29-.04-.38,0-.72.18-.94.49-.21-.07-.43-.13-.65-.19.12-.43.22-.87.29-1.3.34-1.98.02-3.37-.9-3.9-.26-.15-.55-.22-.88-.22h0ZM55.78,193.87c.02-.63.17-1.42.72-1.74.16-.09.36-.14.58-.14.67,0,1.58.44,2.55,1.25.33.28.65.57.95.88-.61.67-1.18,1.39-1.7,2.14-.9.07-1.81.21-2.7.4-.06-.21-.11-.42-.16-.62.34-.16.58-.49.64-.86.05-.3-.03-.61-.21-.86-.17-.23-.41-.38-.68-.44h0ZM62.36,193.26l.02-.02c.97-.81,1.88-1.25,2.55-1.25.22,0,.41.05.58.14.67.39.89,1.58.6,3.27-.07.42-.17.85-.29,1.26-.89-.19-1.79-.33-2.7-.4-.52-.75-1.09-1.47-1.7-2.14.29-.3.61-.59.93-.86h0ZM59.67,196.2c.41-.57.86-1.12,1.33-1.64.47.52.92,1.07,1.33,1.64-.44-.02-.89-.03-1.33-.03-.45,0-.9.01-1.33.03h0ZM59.23,196.84c.58-.04,1.18-.06,1.78-.06s1.2.02,1.78.06c.33.49.65.99.94,1.51.3.52.58,1.05.83,1.57-.25.51-.52,1.03-.82,1.54l-.02.03c-.3.51-.61,1.02-.95,1.51-.58.04-1.18.06-1.78.06s-1.19-.02-1.78-.06c-.33-.48-.65-.99-.94-1.51-.3-.52-.58-1.05-.83-1.57.25-.52.53-1.05.83-1.57.3-.52.62-1.03.94-1.51h0ZM56.36,197.24c.69-.15,1.39-.26,2.08-.33-.24.36-.47.75-.69,1.14-.22.39-.44.78-.64,1.17-.29-.64-.54-1.3-.75-1.97h0ZM64.25,198.02c-.22-.38-.45-.76-.68-1.11.7.07,1.4.19,2.08.33-.22.67-.47,1.33-.75,1.97-.2-.39-.41-.78-.64-1.17v-.02s-.01,0-.01,0h0ZM54.55,202.08h-.02c-1.61-.6-2.53-1.39-2.53-2.16s.92-1.56,2.53-2.15c.4-.15.82-.28,1.24-.39.28.86.61,1.72,1,2.54-.39.82-.73,1.68-1,2.54-.41-.11-.82-.23-1.21-.38h0ZM65.24,199.92c.39-.82.72-1.67,1-2.54.21.05.42.11.62.17-.03.38.13.75.43.99.2.16.46.25.72.25.33,0,.63-.14.85-.37.54.34,1.15.86,1.15,1.5,0,.77-.92,1.56-2.53,2.15h-.03c-.39.16-.8.28-1.2.39-.28-.86-.61-1.72-1-2.54h0ZM56.36,202.6c.22-.67.47-1.33.75-1.97.2.39.41.78.64,1.17.22.39.46.77.7,1.14-.7-.07-1.4-.18-2.09-.33h0ZM63.56,202.93c.24-.37.47-.75.7-1.14.22-.38.44-.78.64-1.17.29.64.54,1.3.75,1.97-.69.15-1.39.26-2.09.33h0ZM63.12,203.59c.91-.07,1.81-.21,2.7-.4.12.42.21.84.29,1.26.29,1.69.07,2.88-.6,3.26-.16.09-.36.14-.58.14-.67,0-1.58-.44-2.55-1.25-.33-.28-.65-.57-.95-.88.61-.67,1.18-1.39,1.7-2.14h0ZM57.09,207.86c-.22,0-.42-.05-.58-.14-.67-.39-.89-1.58-.6-3.26.07-.42.17-.85.28-1.26.89.19,1.8.33,2.7.4.52.75,1.09,1.46,1.7,2.14-.15.16-.31.31-.46.45-.19-.13-.42-.2-.65-.2-.14,0-.28.03-.42.08-.57.22-.86.85-.68,1.42-.49.26-.92.39-1.29.39h0ZM61.01,203.68c.44,0,.89-.01,1.33-.03-.41.57-.86,1.12-1.33,1.64-.47-.52-.92-1.07-1.33-1.64.43.02.88.03,1.33.03h0Z"/>
          </g>
          <g>
            <path class="st1" d="M64.93,191.46c.31,0,.59.07.84.21.89.51,1.19,1.86.86,3.81-.08.46-.19.92-.31,1.38.27.07.54.14.79.22.2-.32.54-.5.91-.5.09,0,.18.01.27.03.57.15.91.73.76,1.3h0c.98.59,1.49,1.28,1.49,2,0,1.02-1.02,1.96-2.87,2.65-.44.16-.89.3-1.35.42.13.45.23.91.31,1.38.33,1.95.03,3.3-.86,3.81-.25.14-.53.21-.81.21,0,0-.02,0-.03,0-.8,0-1.79-.47-2.89-1.38-.36-.3-.71-.62-1.03-.96-.2.2-.39.39-.59.57.08.15.12.32.12.5,0,.59-.48,1.07-1.07,1.07-.09,0-.19-.01-.28-.04-.18-.05-.34-.14-.47-.27-.6.33-1.16.5-1.64.5,0,0-.02,0-.03,0-.29,0-.57-.07-.81-.21-1.12-.65-1.26-2.64-.55-5.18-2.56-.65-4.22-1.77-4.22-3.07s1.66-2.42,4.22-3.07c-.08-.27-.14-.53-.2-.79-.47-.02-.87-.34-.99-.79-.16-.57.18-1.16.75-1.31.02-1.14.36-1.93.99-2.29.25-.14.53-.21.84-.21,1.08,0,2.49.86,3.93,2.33,1.44-1.47,2.85-2.33,3.93-2.33M55.94,195.98h0s0,0,0,0c0,0,0,0,0,0h0s0,0,0,0c.06.25.12.5.19.77.92-.2,1.86-.34,2.8-.42.54-.78,1.13-1.52,1.76-2.22-.32-.33-.66-.64-1.01-.94-1-.83-1.91-1.27-2.6-1.27-.23,0-.44.05-.62.15-.59.34-.75,1.17-.76,1.88.58.09.98.64.89,1.22-.06.37-.31.69-.66.83M62.33,193.18h0c-.35.29-.69.61-1.01.94.64.7,1.23,1.44,1.76,2.22.94.08,1.88.22,2.8.42.13-.44.23-.89.31-1.35.29-1.72.06-2.94-.64-3.35-.18-.1-.39-.15-.62-.15-.69,0-1.6.44-2.6,1.27M59.51,196.29c.49-.03.99-.04,1.5-.04.5,0,1.01.01,1.5.04-.46-.65-.96-1.27-1.5-1.85-.54.59-1.04,1.2-1.5,1.85M61.01,203.15c.62,0,1.23-.02,1.82-.07.34-.49.66-1.01.97-1.55h0c.31-.54.6-1.08.85-1.61-.26-.54-.54-1.08-.85-1.61-.31-.54-.63-1.05-.97-1.55-.6-.04-1.21-.07-1.83-.07s-1.23.02-1.82.07c-.33.49-.66,1.01-.97,1.55-.31.54-.6,1.08-.85,1.61.26.54.55,1.08.85,1.61.31.54.63,1.05.97,1.55.59.04,1.2.07,1.82.07M57.11,199.4h0s0,0,0,0c.22-.44.46-.87.71-1.32.25-.44.52-.87.79-1.27-.79.08-1.57.2-2.35.37.24.76.53,1.5.85,2.22h0M64.9,199.4c.33-.72.61-1.46.85-2.22-.78-.17-1.56-.29-2.35-.37.27.41.53.83.78,1.27h0c.25.44.49.88.71,1.32M54.5,202.15h0c.43.16.87.29,1.32.41.29-.9.63-1.78,1.04-2.64-.41-.85-.75-1.73-1.04-2.63-.45.11-.89.25-1.32.41-1.64.61-2.58,1.42-2.58,2.23s.94,1.62,2.58,2.23M66.19,202.56c.45-.11.89-.25,1.32-.41h0c1.64-.61,2.58-1.42,2.58-2.23,0-.68-.64-1.23-1.25-1.6-.21.26-.52.4-.83.4-.24,0-.47-.08-.67-.24-.29-.24-.44-.61-.39-.98-.24-.08-.5-.15-.76-.21-.28.9-.63,1.78-1.04,2.64.41.85.75,1.74,1.04,2.64M58.61,203.03s0,0,0,0h0s0,0,0,0c-.27-.41-.53-.83-.79-1.27-.25-.44-.49-.88-.71-1.32-.33.72-.62,1.46-.86,2.22.78.17,1.56.29,2.35.37M63.4,203.03c.79-.08,1.58-.2,2.35-.37-.24-.76-.53-1.5-.85-2.22h0c-.22.44-.46.88-.71,1.32-.25.44-.51.86-.79,1.27M64.93,207.94c.23,0,.44-.05.62-.15.7-.41.93-1.63.64-3.35-.08-.45-.18-.9-.31-1.35-.92.2-1.86.34-2.8.42-.54.78-1.13,1.52-1.76,2.22.32.33.66.65,1.01.94,1,.83,1.91,1.27,2.6,1.27M57.09,207.94c.46,0,.97-.2,1.39-.43-.21-.55.06-1.17.61-1.38.13-.05.26-.07.39-.07.23,0,.47.08.66.23.19-.17.38-.36.57-.55-.64-.7-1.23-1.44-1.76-2.22-.94-.07-1.88-.21-2.8-.42-.13.44-.23.89-.31,1.34-.29,1.72-.06,2.94.64,3.35.19.11.4.16.62.16M61.01,203.6c-.51,0-1.01-.01-1.5-.04.46.65.96,1.26,1.5,1.85.54-.59,1.03-1.2,1.5-1.85,0,0,0,0,0,0h0c-.49.03-.99.04-1.5.04M64.93,191.35c-1.08,0-2.47.81-3.93,2.28-1.46-1.47-2.85-2.28-3.93-2.28-.33,0-.63.08-.89.23-.65.37-1.01,1.17-1.04,2.31-.58.2-.91.82-.75,1.42.13.47.53.81,1.01.86.05.2.1.4.15.61-1.24.33-2.28.77-3,1.28-.78.56-1.2,1.2-1.2,1.87s.41,1.31,1.19,1.86c.72.51,1.75.95,2.99,1.28-.34,1.24-.47,2.36-.39,3.23.09.96.44,1.64,1.02,1.97.27.15.57.23.87.23h.03c.48,0,1.03-.16,1.62-.48.13.11.29.2.46.24.1.03.2.04.31.04.65,0,1.18-.53,1.18-1.18,0-.16-.03-.32-.1-.47.15-.14.3-.29.45-.44.31.31.63.61.96.89,1.11.92,2.13,1.4,2.96,1.4h.03c.3,0,.6-.08.87-.23.93-.54,1.25-1.93.91-3.93-.07-.43-.17-.86-.29-1.28.42-.11.84-.24,1.25-.39,1.9-.7,2.94-1.68,2.94-2.75,0-.75-.51-1.46-1.48-2.05.05-.28,0-.57-.14-.81-.16-.27-.41-.47-.72-.54-.1-.03-.2-.04-.3-.04-.38,0-.73.18-.95.48-.2-.06-.4-.12-.61-.17.12-.42.21-.85.29-1.28.34-2,.02-3.39-.91-3.93-.26-.15-.56-.23-.89-.23h0ZM55.81,193.85c.03-.62.17-1.39.71-1.69.16-.09.35-.14.56-.14.66,0,1.56.44,2.53,1.25.32.27.63.56.93.86-.6.66-1.16,1.37-1.67,2.11-.89.07-1.79.2-2.66.39-.05-.19-.1-.39-.15-.57.34-.17.58-.5.64-.87.09-.61-.3-1.18-.89-1.33h0ZM62.37,193.28l.02-.02c.97-.8,1.87-1.25,2.53-1.25.22,0,.4.05.56.14.66.38.87,1.56.59,3.24-.07.41-.16.83-.28,1.24-.88-.19-1.77-.32-2.66-.4-.51-.74-1.07-1.45-1.67-2.11.29-.29.59-.57.9-.84h0ZM59.73,196.17c.4-.54.82-1.07,1.27-1.56.45.5.88,1.02,1.27,1.57-.42-.02-.85-.03-1.27-.03-.43,0-.86.01-1.27.03h0ZM59.24,196.87c.58-.04,1.17-.06,1.76-.06s1.18.02,1.76.06c.33.48.64.98.94,1.5.3.51.58,1.04.83,1.56-.25.51-.52,1.02-.8,1.52l-.02.04c-.29.51-.61,1.01-.94,1.5-.58.04-1.17.06-1.76.06s-1.18-.02-1.76-.06c-.32-.48-.64-.98-.94-1.5-.3-.51-.57-1.04-.83-1.56.25-.52.53-1.04.83-1.56.3-.51.61-1.02.94-1.5h0ZM56.4,197.26c.65-.14,1.32-.25,1.99-.32-.23.35-.45.71-.66,1.09-.21.37-.42.75-.61,1.12-.27-.61-.51-1.25-.72-1.88h0ZM64.27,198c-.21-.36-.43-.72-.65-1.06.67.07,1.33.18,1.99.32-.21.64-.45,1.27-.72,1.88-.19-.37-.4-.75-.61-1.12l-.02-.03h0ZM54.56,202.06h-.02c-1.59-.6-2.51-1.37-2.51-2.13s.91-1.54,2.51-2.13c.39-.14.8-.27,1.21-.38.27.85.61,1.69.99,2.5-.38.81-.72,1.65-.99,2.51-.4-.1-.8-.23-1.18-.37h0ZM65.27,199.92c.38-.81.71-1.65.99-2.5.19.05.39.1.57.16-.02.38.14.75.44.99.21.17.47.26.74.26.33,0,.63-.13.85-.37.53.33,1.12.84,1.12,1.46,0,.76-.91,1.54-2.51,2.13h-.03c-.38.15-.78.27-1.17.38-.27-.85-.61-1.69-.99-2.5h0ZM56.4,202.58c.21-.64.45-1.27.72-1.88.19.37.39.75.61,1.12.21.37.44.73.66,1.09-.67-.07-1.34-.18-1.99-.32h0ZM63.62,202.9c.23-.35.45-.72.66-1.09.21-.37.42-.74.61-1.12.27.61.51,1.25.72,1.88-.66.14-1.32.25-1.99.32h0ZM63.14,203.62c.89-.07,1.79-.21,2.66-.4.11.41.21.82.28,1.24.29,1.68.07,2.85-.59,3.23-.16.09-.35.14-.56.14-.66,0-1.56-.44-2.53-1.25-.32-.27-.64-.56-.93-.86.6-.66,1.16-1.37,1.67-2.11h0ZM57.09,207.83c-.21,0-.41-.05-.57-.14-.66-.38-.87-1.56-.59-3.23.07-.41.16-.83.28-1.23.88.19,1.77.32,2.66.39.51.74,1.07,1.44,1.67,2.11-.14.14-.28.28-.42.41-.19-.13-.42-.19-.65-.19-.15,0-.29.03-.43.08-.29.11-.53.34-.65.62-.11.26-.13.54-.05.81-.48.25-.9.38-1.25.38h0ZM61.01,203.71c.42,0,.85-.01,1.27-.03-.4.54-.82,1.07-1.27,1.56-.45-.5-.88-1.02-1.27-1.56.42.02.84.03,1.27.03h0Z"/>
            <path class="st1" d="M64.93,191.35c.33,0,.63.08.89.23.93.54,1.25,1.93.91,3.93-.07.43-.17.86-.29,1.28.21.05.41.11.61.17.22-.3.57-.48.95-.48.1,0,.2.01.3.04.3.08.56.27.72.54.15.25.19.53.14.81.97.6,1.48,1.31,1.48,2.05,0,1.07-1.05,2.05-2.94,2.75-.41.15-.83.28-1.25.39.12.42.21.85.29,1.28.34,2,.02,3.39-.91,3.93-.26.15-.56.23-.87.23h-.03c-.83,0-1.85-.48-2.96-1.4-.33-.28-.66-.58-.96-.89-.15.15-.3.3-.45.44.07.15.1.31.1.47,0,.65-.53,1.18-1.18,1.18-.1,0-.21-.01-.31-.04-.17-.05-.33-.13-.46-.24-.59.32-1.14.48-1.62.48h-.03c-.3,0-.6-.08-.87-.23-.57-.33-.93-1.01-1.02-1.97-.08-.88.05-2,.39-3.23-1.24-.33-2.28-.77-2.99-1.28-.78-.56-1.19-1.2-1.19-1.86s.41-1.31,1.2-1.87c.72-.51,1.75-.95,3-1.28-.06-.21-.11-.41-.15-.61-.48-.05-.88-.39-1.01-.86-.16-.6.17-1.22.75-1.42.04-1.14.39-1.93,1.04-2.31.26-.15.56-.23.89-.23,1.08,0,2.47.81,3.93,2.28,1.46-1.47,2.85-2.28,3.93-2.28M61.01,193.79c-1.44-1.47-2.85-2.33-3.93-2.33h0c-.31,0-.59.07-.84.21-.63.36-.97,1.15-.99,2.29-.57.16-.9.74-.75,1.31.12.45.52.77.99.79.06.26.12.52.2.79-2.56.65-4.22,1.77-4.22,3.07s1.66,2.41,4.22,3.07c-.71,2.54-.57,4.54.55,5.18.25.14.53.21.81.21,0,0,.02,0,.03,0,.48,0,1.03-.17,1.64-.5.13.13.3.22.47.27.09.02.18.04.28.04.59,0,1.07-.48,1.07-1.07,0-.17-.04-.34-.12-.5.2-.18.39-.37.59-.57.33.34.67.66,1.03.96,1.09.91,2.09,1.38,2.89,1.38,0,0,.02,0,.03,0,.29,0,.57-.07.81-.21.89-.51,1.19-1.86.86-3.81-.08-.46-.19-.92-.31-1.38.46-.11.91-.25,1.35-.42,1.85-.69,2.87-1.63,2.87-2.65,0-.73-.51-1.42-1.49-2h0c.15-.57-.19-1.16-.76-1.3-.09-.02-.18-.03-.27-.03-.36,0-.71.18-.91.5-.25-.08-.52-.15-.79-.22.13-.45.23-.91.31-1.38.33-1.95.03-3.3-.86-3.81-.25-.14-.53-.21-.84-.21-1.08,0-2.49.86-3.93,2.33M57.08,191.9c.69,0,1.6.44,2.6,1.27.35.29.69.61,1.01.94-.64.7-1.23,1.44-1.76,2.22-.94.07-1.88.21-2.8.42-.07-.26-.14-.52-.19-.77.35-.14.6-.46.66-.83.09-.58-.31-1.13-.89-1.22.02-.71.17-1.54.76-1.88.18-.1.39-.15.62-.15h0M56.21,196.62c.88-.19,1.77-.32,2.66-.39.51-.74,1.07-1.45,1.67-2.11-.29-.3-.61-.59-.93-.86-.97-.8-1.87-1.25-2.53-1.25-.22,0-.4.05-.56.14-.53.31-.68,1.07-.71,1.69.59.14.98.72.89,1.33-.06.38-.3.7-.64.87.04.19.09.38.15.57M64.93,191.9c.23,0,.44.05.62.15.7.4.93,1.63.64,3.35-.08.45-.18.9-.31,1.35-.92-.2-1.86-.34-2.8-.42-.54-.78-1.13-1.52-1.76-2.22.32-.33.66-.64,1.01-.94h0c1.01-.83,1.91-1.27,2.6-1.27M65.8,196.62c.11-.41.21-.82.28-1.24.28-1.68.07-2.85-.59-3.24-.16-.09-.35-.14-.56-.14-.66,0-1.56.44-2.53,1.25l-.02.02c-.31.26-.62.54-.9.84.6.66,1.16,1.37,1.67,2.11.89.07,1.79.21,2.66.4M61.01,194.44c.54.59,1.04,1.2,1.5,1.85-.49-.03-.99-.04-1.5-.04-.51,0-1.01.01-1.5.04.46-.65.96-1.26,1.5-1.85M59.73,196.17c.41-.02.84-.03,1.27-.03.43,0,.85.01,1.27.03-.4-.54-.82-1.07-1.27-1.57-.45.5-.88,1.02-1.27,1.56M55.94,195.98h0s0,0,0,0h0M55.94,195.98h0s0,0,0,0M55.94,195.98h0s0,0,0,0M61.01,196.69c.62,0,1.23.02,1.83.07.33.49.66,1.01.97,1.55.31.54.6,1.08.85,1.61-.26.54-.54,1.08-.85,1.61h0c-.31.54-.63,1.05-.97,1.55-.59.04-1.2.07-1.82.07s-1.23-.02-1.82-.07c-.33-.49-.66-1.01-.97-1.55-.31-.54-.59-1.08-.85-1.61.26-.54.54-1.08.85-1.61.31-.54.63-1.05.97-1.55.59-.04,1.2-.07,1.82-.07M61.01,203.04c.59,0,1.19-.02,1.76-.06.33-.48.64-.99.94-1.5l.02-.04c.29-.5.56-1.01.8-1.52-.25-.52-.53-1.04-.83-1.56-.29-.51-.61-1.01-.94-1.5-.58-.04-1.17-.06-1.76-.06s-1.19.02-1.76.06c-.32.48-.64.98-.94,1.5-.3.52-.58,1.04-.83,1.56.25.52.53,1.05.83,1.56.3.51.61,1.02.94,1.5.58.04,1.17.06,1.76.06M58.61,196.81c-.27.41-.53.83-.79,1.27-.25.44-.49.88-.71,1.32,0,0,0,0,0,0h0s0,0,0,0c-.33-.72-.61-1.46-.85-2.22.78-.17,1.56-.29,2.35-.37M57.12,199.14c.19-.37.39-.74.61-1.12.21-.37.44-.74.66-1.09-.67.07-1.33.18-1.99.32.21.64.45,1.27.72,1.88M63.4,196.81c.79.08,1.57.2,2.35.37-.24.76-.53,1.5-.85,2.22-.22-.44-.46-.88-.71-1.32h0c-.26-.44-.52-.87-.78-1.27M64.89,199.15c.27-.61.51-1.25.72-1.88-.66-.14-1.32-.25-1.99-.32.22.34.44.69.65,1.06h0s.02.03.02.03c.21.37.42.74.61,1.12M55.82,197.28c.29.9.63,1.78,1.04,2.63-.41.85-.76,1.74-1.04,2.64-.45-.11-.89-.25-1.32-.41h0c-1.64-.61-2.58-1.42-2.58-2.23s.94-1.62,2.58-2.23c.43-.16.87-.29,1.32-.41M55.75,202.42c.27-.85.61-1.7.99-2.51-.38-.81-.71-1.65-.99-2.5-.41.11-.81.23-1.21.38-1.59.59-2.51,1.37-2.51,2.13s.91,1.54,2.51,2.13h.02c.39.15.79.27,1.18.38M66.19,197.29c.26.07.52.14.76.21-.05.37.1.74.39.98.2.16.43.24.67.24.31,0,.62-.14.83-.4.61.37,1.25.92,1.25,1.6,0,.81-.94,1.62-2.58,2.23h0c-.43.16-.87.29-1.32.41-.28-.9-.63-1.78-1.04-2.64.41-.85.75-1.73,1.04-2.64M66.26,202.43c.4-.1.79-.23,1.17-.37h.03c1.59-.6,2.51-1.38,2.51-2.14,0-.62-.59-1.13-1.12-1.46-.22.23-.53.37-.85.37-.27,0-.53-.09-.74-.26-.3-.24-.46-.61-.44-.99-.18-.06-.38-.11-.57-.16-.27.85-.61,1.69-.99,2.5.38.81.72,1.65.99,2.5M57.11,200.44c.22.44.46.88.71,1.32.25.44.52.86.79,1.27,0,0,0,0,0,0h0s0,0,0,0c-.79-.08-1.58-.2-2.35-.37.24-.76.53-1.5.86-2.22M58.39,202.9c-.23-.35-.45-.72-.66-1.09-.21-.37-.42-.75-.61-1.12-.27.61-.51,1.25-.72,1.88.66.14,1.32.25,1.99.32M64.9,200.44c.33.72.62,1.46.85,2.22-.78.17-1.56.29-2.35.37.27-.41.53-.84.79-1.27.25-.44.49-.88.71-1.32h0M63.62,202.9c.67-.07,1.34-.18,1.99-.32-.21-.64-.45-1.27-.72-1.88-.19.38-.4.75-.61,1.12-.21.37-.44.73-.66,1.09M65.88,203.09c.13.44.23.89.31,1.35.29,1.72.06,2.94-.64,3.35-.18.1-.39.15-.62.15-.69,0-1.6-.44-2.6-1.27-.35-.3-.69-.61-1.01-.94.64-.7,1.23-1.44,1.76-2.22.94-.08,1.88-.22,2.8-.42M64.93,207.83c.22,0,.4-.05.56-.14.66-.38.87-1.56.59-3.23-.07-.41-.16-.83-.28-1.24-.88.19-1.77.32-2.66.4-.51.74-1.07,1.44-1.67,2.11.3.3.61.59.93.86.97.8,1.87,1.25,2.53,1.25M56.13,203.09c.92.2,1.86.34,2.8.42.54.78,1.13,1.52,1.76,2.22-.19.2-.38.38-.57.55-.19-.15-.42-.23-.66-.23-.13,0-.26.02-.39.07-.55.21-.82.83-.61,1.38-.42.23-.92.43-1.39.43-.22,0-.43-.05-.62-.16-.7-.4-.93-1.63-.64-3.35.08-.45.18-.9.31-1.34M57.09,207.83c.36,0,.78-.13,1.25-.38-.08-.27-.06-.55.05-.81.13-.29.36-.51.65-.62.14-.05.28-.08.43-.08.23,0,.46.07.65.19.14-.13.28-.27.42-.41-.6-.66-1.16-1.37-1.67-2.11-.89-.07-1.79-.21-2.66-.39-.11.41-.21.82-.28,1.23-.29,1.68-.07,2.85.59,3.23.16.09.35.14.57.14M62.5,203.55s0,0,0,0c0,0,0,0,0,0h0M62.5,203.55c-.46.65-.96,1.26-1.5,1.85-.54-.59-1.03-1.2-1.5-1.85.49.03.99.04,1.5.04s1.01-.01,1.5-.04M62.28,203.67c-.42.02-.85.03-1.27.03s-.86-.01-1.27-.03c.4.54.82,1.07,1.27,1.56.45-.5.88-1.02,1.27-1.56M64.93,191.27v.08s0-.08,0-.08c-1.08,0-2.48.8-3.93,2.25-1.45-1.45-2.84-2.25-3.93-2.25-.35,0-.66.08-.93.24-.66.38-1.03,1.18-1.08,2.32-.59.24-.91.88-.75,1.5.13.48.53.84,1.02.91.04.16.08.32.12.48-1.22.33-2.23.77-2.95,1.27-.8.57-1.23,1.24-1.23,1.93s.42,1.36,1.23,1.93c.71.51,1.73.95,2.94,1.27-.33,1.22-.45,2.32-.37,3.18.09.98.46,1.68,1.06,2.03.28.16.59.24.91.24h.03c.48,0,1.02-.16,1.61-.46.13.1.29.18.45.23.11.03.22.04.33.04.7,0,1.26-.57,1.26-1.26,0-.15-.03-.31-.08-.45.12-.11.24-.23.36-.35.29.29.6.57.91.83,1.12.93,2.16,1.42,3.01,1.42h.03c.32,0,.63-.08.91-.24.96-.55,1.3-1.98.95-4.01-.07-.4-.16-.81-.27-1.21.4-.11.79-.23,1.18-.37,1.93-.72,3-1.72,3-2.83,0-.76-.51-1.49-1.47-2.1.04-.28-.02-.57-.16-.81-.17-.29-.44-.5-.77-.58-.1-.03-.21-.04-.32-.04-.39,0-.74.17-.98.47-.15-.05-.31-.09-.48-.14.11-.4.2-.8.27-1.21.35-2.03,0-3.46-.95-4.01-.27-.16-.59-.24-.93-.24h0ZM61.01,193.9l.06-.06c1.45-1.49,2.82-2.3,3.87-2.3.3,0,.56.07.8.2.85.49,1.14,1.82.82,3.73-.08.46-.18.92-.31,1.37l-.02.08.08.02c.27.07.54.14.78.22l.06.02.03-.05c.18-.29.49-.46.84-.46.08,0,.17.01.25.03.26.07.47.23.6.46.13.23.17.49.1.75l-.02.06.05.03c.95.57,1.45,1.24,1.45,1.93,0,.99-1,1.9-2.82,2.57-.44.16-.89.3-1.34.41l-.08.02.02.08c.13.45.23.91.31,1.37.33,1.91.03,3.23-.82,3.73-.24.13-.5.2-.77.2,0,0-.02,0-.03,0-.79,0-1.77-.47-2.84-1.36-.36-.3-.7-.62-1.03-.95l-.06-.06-.06.06c-.19.2-.39.39-.58.57l-.05.04.03.06c.07.14.11.3.11.46,0,.54-.44.99-.99.99-.09,0-.17-.01-.26-.03-.17-.04-.32-.13-.44-.25l-.04-.04-.05.03c-.59.33-1.13.49-1.6.49h-.03c-.27,0-.54-.07-.78-.2-1.05-.6-1.24-2.51-.51-5.09l.02-.08-.08-.02c-2.6-.66-4.15-1.78-4.15-2.99s1.55-2.33,4.16-2.99l.08-.02-.02-.08c-.08-.27-.14-.53-.2-.79v-.06s-.08,0-.08,0c-.43-.02-.8-.31-.92-.73-.14-.53.17-1.07.69-1.21l.06-.02v-.06c.02-1.11.35-1.88.95-2.22.23-.13.5-.2.8-.2,1.05,0,2.42.82,3.87,2.3l.06.06h0ZM57.08,191.82h0c-.25,0-.47.06-.66.16-.5.29-.78.96-.81,1.95v.07s.07.01.07.01c.54.08.91.59.82,1.13-.05.34-.29.63-.61.76l-.06.03.02.07c.06.25.12.51.2.77l.02.07.07-.02c.92-.2,1.85-.34,2.79-.42h.04s.02-.03.02-.03c.53-.77,1.12-1.52,1.76-2.21l.05-.06-.05-.05c-.32-.33-.66-.65-1.02-.94-1.02-.84-1.94-1.29-2.65-1.29h0ZM55.9,193.79c.03-.57.17-1.28.66-1.56.15-.08.32-.13.52-.13.64,0,1.53.44,2.48,1.23.3.25.59.52.87.8-.58.64-1.12,1.32-1.61,2.03-.86.07-1.72.2-2.56.38-.04-.15-.08-.29-.11-.43.33-.19.57-.52.62-.9.1-.62-.29-1.22-.88-1.4h0ZM64.93,191.82c-.71,0-1.61.44-2.62,1.26h0s-.04.03-.04.03c-.35.3-.7.61-1.02.94l-.05.05.05.06c.63.69,1.23,1.44,1.76,2.21l.02.03h.04c.93.08,1.87.22,2.79.42l.07.02.02-.07c.13-.44.23-.9.31-1.36.3-1.76.05-3.01-.68-3.43-.19-.11-.41-.16-.66-.16h0ZM61.58,194.12c.27-.27.55-.53.85-.78l.02-.02c.96-.79,1.84-1.23,2.48-1.23.2,0,.38.04.52.13.63.36.83,1.51.55,3.15-.07.39-.15.77-.26,1.15-.84-.18-1.7-.3-2.56-.38-.49-.71-1.03-1.39-1.61-2.03h0ZM61.01,194.32l-.06.07c-.54.59-1.04,1.21-1.5,1.86l-.1.14h.17c.48-.04.98-.05,1.49-.05.5,0,1,.01,1.49.04h.17s-.1-.13-.1-.13c-.46-.65-.97-1.27-1.5-1.86l-.06-.07h0ZM59.9,196.08c.35-.47.72-.92,1.11-1.35.39.43.76.89,1.11,1.35-.37-.02-.74-.02-1.11-.02-.37,0-.74,0-1.11.02h0ZM61.01,196.61c-.61,0-1.23.02-1.83.07h-.04s-.02.04-.02.04c-.34.5-.67,1.02-.97,1.55-.31.54-.6,1.08-.86,1.62l-.02.04.02.04c.26.54.55,1.09.86,1.62.31.53.64,1.06.97,1.55l.02.03h.04c.6.05,1.22.07,1.83.07s1.23-.02,1.83-.07h.04s.02-.04.02-.04c.33-.49.65-1,.95-1.51h0s.02-.04.02-.04c.31-.53.6-1.08.86-1.62l.02-.04-.02-.04c-.26-.54-.55-1.08-.86-1.62-.31-.53-.63-1.05-.97-1.55l-.02-.03h-.04c-.6-.05-1.22-.07-1.83-.07h0ZM59.29,196.95c.56-.04,1.14-.06,1.72-.06s1.15.02,1.72.06c.32.47.62.96.91,1.46.29.5.56,1.01.81,1.52-.24.49-.5.99-.78,1.48l-.02.04c-.29.5-.59.99-.91,1.46-.56.04-1.14.06-1.72.06s-1.15-.02-1.72-.06c-.32-.47-.62-.96-.91-1.46-.29-.5-.56-1.01-.81-1.52.25-.5.52-1.01.81-1.52.29-.5.59-.99.91-1.46h0ZM58.77,196.71l-.17.02c-.79.08-1.58.2-2.36.37l-.09.02.03.08c.24.76.53,1.51.86,2.23l.07.15.08-.15c.22-.43.46-.87.71-1.31.25-.44.52-.87.78-1.27l.09-.14h0ZM56.51,197.32c.57-.12,1.15-.21,1.72-.28-.19.31-.39.62-.57.95-.19.32-.36.65-.53.97-.23-.53-.44-1.08-.62-1.63h0ZM63.24,196.71l.09.14c.27.4.53.83.78,1.27v.02s.01,0,.01,0c.25.43.48.86.7,1.29l.08.15.07-.15c.33-.72.62-1.47.86-2.23l.03-.08-.09-.02c-.78-.17-1.57-.3-2.36-.37l-.17-.02h0ZM64.32,197.94c-.18-.3-.36-.6-.54-.89.58.07,1.16.16,1.72.28-.18.55-.39,1.1-.62,1.63-.17-.32-.35-.65-.53-.97l-.02-.03v-.02s-.01,0-.01,0h0ZM55.88,197.19l-.07.02c-.45.11-.9.25-1.33.41-1.67.62-2.63,1.46-2.63,2.31,0,.77.8,1.54,2.23,2.14h-.03s.44.16.44.16c.43.16.88.3,1.33.41l.07.02.02-.07c.28-.9.63-1.78,1.04-2.63l.02-.03-.02-.03c-.4-.85-.75-1.73-1.03-2.62l-.02-.07h0ZM55.69,202.33c-.37-.1-.74-.22-1.1-.35h-.02c-1.56-.59-2.45-1.33-2.45-2.06s.89-1.47,2.45-2.05c.37-.13.75-.25,1.13-.36.27.82.59,1.63.95,2.4-.37.78-.69,1.59-.96,2.41h0ZM66.13,197.19l-.02.07c-.28.89-.63,1.78-1.03,2.63l-.02.03.02.03c.4.85.75,1.73,1.03,2.63l.02.07.07-.02c.45-.11.89-.25,1.33-.41l.05-.02h0c1.64-.62,2.58-1.45,2.58-2.29,0-.58-.44-1.16-1.29-1.67l-.06-.04-.04.06c-.19.23-.47.37-.77.37-.23,0-.44-.08-.62-.22-.27-.22-.41-.56-.36-.91v-.07s-.06-.02-.06-.02c-.25-.08-.5-.15-.77-.22l-.07-.02h0ZM65.36,199.92c.37-.78.69-1.59.95-2.41.15.04.29.08.43.12,0,.38.17.75.47.99.22.18.5.28.79.28.33,0,.63-.12.87-.34.48.31,1.02.79,1.02,1.36,0,.73-.89,1.47-2.45,2.05h-.03c-.36.14-.72.26-1.09.36-.27-.82-.59-1.63-.95-2.41h0ZM64.82,200.07v.35c-.22.43-.45.87-.7,1.3-.25.43-.51.86-.78,1.27l-.09.14.17-.02c.79-.08,1.59-.2,2.36-.37l.09-.02-.03-.08c-.24-.76-.53-1.51-.86-2.23l-.16-.34h0ZM63.78,202.8c.2-.31.39-.63.57-.95.18-.32.36-.64.53-.97.23.53.44,1.08.62,1.63-.57.12-1.15.21-1.73.28h0ZM57.11,200.25l-.07.15c-.33.72-.62,1.47-.86,2.23l-.03.08.09.02c.76.17,1.54.29,2.32.37l.13.2v-.27s0-.08,0-.08h-.04c-.26-.4-.52-.81-.76-1.24-.25-.44-.49-.88-.71-1.31l-.08-.15h0ZM56.51,202.52c.18-.55.39-1.1.62-1.63.17.32.35.65.53.97.19.32.38.64.57.95-.58-.07-1.16-.16-1.73-.28h0ZM65.94,202.99l-.07.02c-.92.2-1.86.34-2.79.42h-.04s-.02.03-.02.03c-.53.77-1.12,1.51-1.76,2.21l-.05.06.05.05c.32.33.66.65,1.02.95,1.02.84,1.94,1.29,2.65,1.29.25,0,.47-.06.66-.16.73-.42.98-1.67.68-3.43-.08-.46-.18-.91-.31-1.35l-.02-.07h0ZM63.18,203.69c.86-.07,1.72-.2,2.56-.38.1.38.19.77.26,1.15.28,1.64.08,2.79-.55,3.15-.15.08-.32.13-.52.13-.64,0-1.53-.44-2.48-1.23-.3-.25-.59-.52-.87-.8.58-.64,1.12-1.32,1.61-2.03h0ZM56.07,203l-.02.07c-.13.44-.23.9-.31,1.35-.3,1.76-.05,3.01.68,3.43.19.11.41.17.66.17.41,0,.89-.15,1.43-.44l.06-.03-.03-.07c-.1-.25-.09-.51.02-.76s.3-.43.55-.52c.11-.04.23-.07.36-.07.22,0,.44.07.61.21l.05.04.05-.05c.19-.17.38-.36.57-.56l.05-.05-.05-.06c-.63-.69-1.22-1.43-1.76-2.21l-.02-.03h-.04c-.94-.08-1.88-.22-2.79-.42l-.07-.02h0ZM57.09,207.75c-.2,0-.38-.04-.53-.13-.63-.36-.83-1.51-.55-3.15.07-.38.15-.77.25-1.15.84.18,1.7.3,2.56.38.49.71,1.03,1.39,1.61,2.03-.11.11-.22.21-.32.31-.19-.11-.41-.17-.64-.17-.16,0-.31.03-.46.09-.31.12-.56.36-.7.67-.11.25-.14.53-.07.8-.44.22-.83.34-1.16.34h0ZM62.67,203.46h-.17c-.49.04-.99.05-1.49.05s-1.01-.01-1.49-.04h-.17s.1.13.1.13c.46.65.97,1.27,1.5,1.86l.06.07.06-.07c.54-.59,1.04-1.21,1.5-1.86l.1-.14h0ZM61.01,203.79c.37,0,.74,0,1.1-.02-.35.47-.72.92-1.1,1.35-.39-.43-.76-.89-1.1-1.35.36.02.73.02,1.11.02h0Z"/>
          </g>
        </g>
        <g>
          <g>
            <path class="st0" d="M59.44,199.22c.23-.24.55-.37.88-.36l-.39,2.32s0,0,0,0c-.02.12.06.23.18.25.01,0,.02,0,.04,0,.1,0,.19-.08.21-.18l.4-2.39h.89v1.93c-.01.29.18.55.46.62.04,0,.08.01.12.01.17,0,.47-.08.69-.54,0,0,0,0,0,0,.05-.11,0-.23-.1-.29-.11-.05-.23,0-.29.1-.12.25-.25.31-.32.3-.08-.03-.14-.12-.13-.21v-1.93h.64c.12,0,.21-.1.21-.21s-.1-.21-.21-.21h-2.14c-.44,0-.95,0-1.44.49-.08.08-.08.21,0,.3.08.09.22.09.3,0Z"/>
            <path class="st1" d="M62.72,198.42c.12,0,.21.1.21.21s-.1.21-.21.21h-.64v1.93c0,.09.04.17.13.21,0,0,.01,0,.02,0,.08,0,.19-.08.3-.3.04-.08.11-.12.19-.12.03,0,.06,0,.09.02.11.05.15.18.1.29,0,0,0,0,0,0-.22.46-.51.54-.69.54,0,0,0,0,0,0-.04,0-.08,0-.11-.01-.28-.07-.47-.33-.46-.62v-1.93h-.89l-.4,2.39c-.02.1-.11.18-.21.18,0,0,0,0,0,0-.01,0-.02,0-.03,0-.12-.02-.2-.13-.18-.25,0,0,0,0,0,0l.39-2.32s-.02,0-.02,0c-.32,0-.63.13-.86.36-.04.04-.1.06-.15.06s-.11-.02-.15-.07c-.08-.08-.08-.21,0-.3.49-.49.99-.49,1.44-.49h2.14M62.72,198.34h-2.14c-.46,0-.98,0-1.5.52-.11.12-.11.3,0,.41.06.06.13.09.21.09s.15-.03.21-.08c.19-.2.45-.32.73-.34l-.37,2.21h0s0,0,0,0h0c-.03.16.08.32.24.34.02,0,.03,0,.05,0,.15,0,.27-.1.29-.25l.39-2.33h.74v1.85c-.01.32.21.62.52.7.05.01.09.01.13.01.18,0,.52-.08.76-.59.03-.07.04-.15.01-.23-.03-.07-.08-.13-.15-.17-.04-.02-.08-.03-.13-.03-.11,0-.22.07-.27.17-.1.2-.19.25-.23.25,0,0,0,0,0,0-.05-.02-.07-.07-.07-.12h0v-1.86h.56c.16,0,.3-.13.3-.3s-.13-.3-.3-.3h0Z"/>
          </g>
          <g>
            <path class="st1" d="M62.72,198.42c.12,0,.21.1.21.21s-.1.21-.21.21h-.64v1.93c0,.09.04.17.13.21,0,0,.01,0,.02,0,.08,0,.19-.08.3-.3.04-.08.11-.12.19-.12.03,0,.06,0,.09.02.11.05.15.18.1.29,0,0,0,0,0,0-.22.46-.51.54-.69.54,0,0,0,0,0,0-.04,0-.08,0-.11-.01-.28-.07-.47-.33-.46-.62v-1.93h-.89l-.4,2.39c-.02.1-.11.18-.21.18,0,0,0,0,0,0-.01,0-.02,0-.03,0-.12-.02-.2-.13-.18-.25,0,0,0,0,0,0l.39-2.32s-.02,0-.02,0c-.32,0-.63.13-.86.36-.04.04-.1.06-.15.06s-.11-.02-.15-.07c-.08-.08-.08-.21,0-.3.49-.49.99-.49,1.44-.49h2.14M62.72,198.31h-2.14c-.44,0-.99,0-1.52.52-.12.13-.12.33,0,.45.06.06.14.1.23.1s.16-.03.23-.09c.18-.19.42-.3.67-.33l-.36,2.17h0s0,.01,0,.01c-.01.09,0,.17.06.24.05.07.13.12.21.13.02,0,.03,0,.05,0,.16,0,.29-.11.32-.27l.38-2.3h.69v1.82c-.01.34.21.64.54.73.05.01.1.02.14.02.19,0,.54-.08.79-.61.04-.08.04-.17.01-.25-.03-.08-.09-.15-.17-.18-.04-.02-.09-.03-.14-.03-.12,0-.24.07-.29.19-.09.18-.17.23-.2.24-.03-.02-.05-.05-.04-.09h0v-1.83h.53c.18,0,.32-.15.32-.32s-.15-.32-.32-.32h0Z"/>
            <path class="st1" d="M62.72,198.31c.18,0,.32.15.32.32s-.15.32-.32.32h-.53v1.82h0s0,.01,0,.01c0,.04.01.07.04.09.03,0,.11-.06.2-.24.05-.11.17-.19.29-.19.05,0,.09.01.14.03.08.04.14.1.17.18.03.08.03.17-.01.25-.25.53-.6.61-.79.61-.05,0-.09,0-.14-.02-.33-.09-.56-.4-.54-.73v-1.82h-.69l-.38,2.3c-.03.16-.16.27-.32.27-.02,0-.04,0-.05,0-.09-.01-.16-.06-.21-.13-.05-.07-.07-.16-.06-.24h0s0-.01,0-.01l.36-2.17c-.25.03-.49.14-.67.33-.06.06-.14.09-.23.09-.09,0-.17-.04-.23-.1-.12-.13-.12-.32,0-.45.52-.52,1.07-.52,1.52-.52h2.14M59.29,199.28c.05,0,.11-.02.15-.06.23-.23.53-.36.86-.36,0,0,.02,0,.02,0l-.39,2.32s0,0,0,0c-.02.12.06.23.18.25.01,0,.02,0,.03,0,0,0,0,0,0,0,.1,0,.19-.08.21-.18l.4-2.39h.89v1.93c-.01.29.18.55.46.62.04,0,.08.01.11.01,0,0,0,0,0,0,.17,0,.47-.08.69-.54,0,0,0,0,0,0,.05-.11,0-.23-.1-.29-.03-.01-.06-.02-.09-.02-.08,0-.16.05-.19.12-.11.22-.22.3-.3.3,0,0-.02,0-.02,0-.08-.03-.14-.12-.13-.21v-1.93h.64c.12,0,.21-.1.21-.21s-.1-.21-.21-.21h-2.14c-.44,0-.95,0-1.44.49-.08.08-.08.21,0,.3.04.04.1.07.15.07M62.72,198.23h-2.14c-.46,0-1.03,0-1.57.55-.15.16-.16.41,0,.57.08.08.18.12.29.12s.21-.04.28-.11c.14-.15.32-.25.52-.29l-.34,2.06h0s0,.01,0,.01h0c-.02.12,0,.22.07.31.06.09.16.15.26.16.02,0,.04,0,.07,0,.2,0,.37-.14.4-.34l.37-2.23h.54v1.74c-.02.37.24.71.6.81.06.01.11.02.16.02.21,0,.59-.08.86-.65.05-.1.05-.21.02-.31-.04-.1-.11-.18-.21-.23-.05-.03-.11-.04-.17-.04-.16,0-.3.09-.37.23-.03.07-.06.11-.09.14v-1.7h.45c.22,0,.41-.18.41-.41s-.18-.41-.41-.41h0ZM59.29,199.2s-.07-.01-.1-.04c-.05-.05-.05-.13,0-.18.47-.47.95-.47,1.38-.47h2.14c.07,0,.13.06.13.13s-.06.13-.13.13h-.72v2.01c0,.12.06.24.18.29h0s0,0,0,0c.01,0,.03,0,.04,0,.06,0,.23-.03.37-.35.02-.05.07-.08.12-.08.02,0,.04,0,.06.01.03.02.06.04.07.08.01.03.01.07,0,.1-.2.41-.44.5-.62.5h0s-.07,0-.1-.01c-.24-.06-.41-.29-.4-.54v-1.93s0-.08,0-.08h-1.04v.07s-.41,2.39-.41,2.39c-.01.06-.07.11-.13.11h0s-.01,0-.02,0c-.04,0-.07-.02-.09-.05-.02-.03-.03-.06-.02-.1h0s0,0,0,0h0s.39-2.32.39-2.32l.02-.09h-.09s-.02,0-.03,0c-.34,0-.68.14-.91.39-.02.02-.06.04-.09.04h0Z"/>
          </g>
        </g>
      </g>
    </g>
    <g>
      <path class="st2" d="M81.08,204.94c-1.33.17-2.63.3-3.89.39-1.27.09-2.59.14-3.96.16l-.21-1.23c.4,0,.79-.02,1.17-.02.38,0,.77-.02,1.16-.04v-3.5h1.6v3.41c.65-.04,1.29-.09,1.93-.15.64-.06,1.3-.14,1.97-.23l.22,1.21ZM79.9,197.57c0,.3-.02.68-.06,1.14-.04.46-.09.93-.15,1.42-.06.49-.13.97-.21,1.44-.08.46-.17.86-.25,1.18l-1.54-.28c.06-.23.12-.52.18-.87.06-.35.12-.72.17-1.1.05-.39.1-.77.14-1.15.04-.38.07-.72.08-1.02h-4.31v-1.23h5.95v.48ZM84.82,201.32h-1.84v5.43h-1.59v-10.07h1.59v3.38h1.84v1.26Z"/>
      <path class="st2" d="M84.94,204.18v-1.24h11.18v1.24h-4.8v3.25h-1.6v-3.25h-4.77ZM94.75,202.18c-.91-.19-1.74-.48-2.47-.89-.73-.4-1.31-.92-1.73-1.54-.44.62-1.02,1.14-1.75,1.54-.72.4-1.54.7-2.46.89l-.52-1.18c.53-.11,1.03-.25,1.5-.44.47-.19.89-.42,1.24-.69.35-.27.64-.58.85-.93.21-.35.32-.74.32-1.18v-.79h1.63v.79c0,.44.11.83.32,1.18.21.35.5.66.86.93.36.27.78.5,1.25.69.47.19.96.34,1.48.44l-.52,1.18Z"/>
      <path class="st2" d="M101.09,198.35v.12c0,.4.08.77.24,1.1.16.33.37.63.64.88.27.25.57.47.91.65.34.18.69.32,1.05.42l-.72,1.11c-.52-.12-1.02-.35-1.52-.69-.5-.34-.94-.78-1.34-1.33-.36.54-.81,1.01-1.33,1.42-.53.4-1.11.72-1.76.96l-.74-1.05c.45-.17.86-.37,1.22-.6.37-.23.68-.48.94-.76.26-.28.46-.6.6-.94.14-.34.21-.72.21-1.13v-.17h-2.47v-1.26h6.53v1.26h-2.46ZM103.34,208.58c-.44,0-.85-.06-1.24-.19-.38-.13-.72-.31-1.01-.55-.29-.24-.52-.53-.68-.88-.16-.35-.25-.74-.25-1.18s.08-.83.25-1.17c.16-.35.39-.64.68-.88.29-.24.63-.43,1.01-.55.38-.13.8-.19,1.24-.19s.85.06,1.24.19c.38.13.72.31,1.01.55.29.24.52.54.68.88.16.35.25.74.25,1.17s-.08.83-.25,1.18c-.16.35-.39.64-.68.88-.29.24-.63.42-1.01.55-.38.13-.8.19-1.24.19ZM103.34,204.29c-.47,0-.85.13-1.15.39-.3.26-.45.62-.45,1.09s.15.85.45,1.11c.3.26.68.39,1.15.39s.85-.13,1.15-.39c.3-.26.45-.63.45-1.11s-.15-.83-.45-1.09c-.3-.26-.68-.39-1.15-.39ZM106.92,196.69v6.33h-1.59v-2.67h-2.08v-1.26h2.08v-2.4h1.59Z"/>
      <path class="st2" d="M110.65,204.71v-3.49h1.6v3.49h1.22v-3.49h1.6v3.49h4.33v1.24h-11.18v-1.24h2.42ZM117.72,198.25c0,.3-.02.68-.06,1.14-.04.46-.09.93-.15,1.42-.06.49-.13.97-.21,1.44-.08.46-.17.86-.25,1.18l-1.54-.28c.08-.27.15-.62.23-1.04.07-.42.14-.86.19-1.31.05-.45.09-.89.13-1.3.03-.41.05-.75.05-1v-.1h-6.25v-1.23h7.87v1.1Z"/>
      <path class="st2" d="M123.38,203.27c-1.11.07-2.22.1-3.31.11l-.21-1.23c1.38-.02,2.76-.07,4.13-.15s2.74-.21,4.1-.38l.22,1.21c-.54.07-1.09.14-1.64.2-.55.06-1.11.11-1.68.15v1.4h-1.6v-1.31ZM121.04,199.15c0-.33.06-.64.19-.92.12-.29.31-.54.54-.75.24-.21.53-.38.89-.51.35-.12.76-.18,1.23-.18s.88.06,1.23.18c.35.12.65.29.89.5.24.21.42.46.54.75.12.29.18.6.18.93s-.06.65-.18.94c-.12.29-.3.54-.54.75-.24.21-.54.38-.89.5-.35.12-.76.18-1.23.18s-.88-.06-1.23-.18c-.35-.12-.65-.29-.89-.51-.24-.21-.42-.46-.54-.75-.13-.29-.19-.6-.19-.92ZM125.17,199.15c0-.12-.02-.25-.05-.38-.03-.13-.1-.25-.2-.36-.1-.11-.23-.19-.39-.26-.16-.07-.38-.1-.63-.1s-.46.03-.62.1c-.16.07-.29.15-.39.26-.1.11-.16.22-.21.35-.04.13-.06.25-.06.38s.02.25.06.38c.04.13.11.25.21.36.09.11.22.2.39.26.16.07.37.1.62.1s.47-.03.63-.1c.16-.07.3-.15.39-.26.1-.11.17-.23.2-.36.03-.13.05-.26.05-.38ZM124.33,204.93v1.81h6.08v1.24h-7.69v-3.06h1.6ZM130.22,196.69v9.33h-1.59v-1.16h-2.37v-1.26h2.37v-6.91h1.59Z"/>
      <path class="st2" d="M142.7,204.96v1.24h-11.18v-1.24h4.81v-2.27h-2.81v-5.6h1.6v4.35h5.76v1.24h-2.95v2.27h4.76Z"/>
      <path class="st2" d="M149.57,202.01h4.77v1.24h-11.18v-1.24h4.8v-.92h-2.86v-4.08h7.3v1.24h-5.69v1.6h5.77v1.23h-2.91v.92ZM148.78,208.58c-.44,0-.85-.05-1.24-.15-.38-.1-.72-.25-1.01-.46-.29-.2-.52-.45-.68-.76-.16-.3-.25-.66-.25-1.06s.08-.76.25-1.06c.16-.3.39-.56.68-.76.29-.2.63-.35,1.01-.46.38-.1.8-.15,1.24-.15s.85.05,1.24.15c.38.1.72.25,1.01.46.29.2.52.45.68.76.16.3.25.66.25,1.06s-.08.76-.25,1.06c-.16.3-.39.56-.68.76-.29.2-.63.35-1.01.46-.38.1-.8.15-1.24.15ZM148.78,205.03c-.47,0-.86.09-1.15.26-.29.17-.44.46-.44.85s.15.69.44.87c.29.18.68.26,1.15.26s.86-.09,1.15-.26c.29-.18.44-.47.44-.87s-.15-.68-.44-.85c-.29-.17-.68-.26-1.15-.26Z"/>
      <path class="st2" d="M159.63,204.96v-2.12h1.6v2.12h4.76v1.24h-11.18v-1.24h4.81ZM164.4,198.31h-3.16c.02.52.13.97.33,1.37.2.39.48.73.82,1.02.34.28.74.52,1.2.7.45.18.93.33,1.44.43l-.52,1.17c-.94-.17-1.75-.48-2.44-.91-.69-.44-1.24-.99-1.65-1.65-.41.67-.97,1.22-1.67,1.65-.7.44-1.51.74-2.42.91l-.52-1.17c.5-.1.98-.24,1.43-.43.45-.18.85-.42,1.2-.7.34-.28.62-.62.83-1.02.21-.39.32-.85.34-1.37h-3.18v-1.22h7.97v1.22Z"/>
      <path class="st2" d="M167.17,200.03c0-.51.14-.96.43-1.36h-.97v-1.21h2.59v-1.05h1.62v1.05h2.59v1.21h-.97c.28.39.43.85.43,1.36,0,.35-.06.67-.19.98-.13.31-.31.58-.56.81-.25.23-.55.41-.9.54-.35.13-.76.2-1.22.2s-.86-.07-1.21-.2c-.35-.14-.65-.32-.89-.54-.25-.23-.43-.49-.56-.8-.13-.31-.19-.63-.19-.98ZM171.3,200.03c0-.15-.02-.3-.05-.46-.03-.16-.1-.3-.19-.43-.1-.13-.23-.23-.39-.31-.17-.08-.38-.12-.64-.12s-.46.04-.62.12c-.16.08-.29.19-.39.31-.1.13-.16.27-.2.43-.04.16-.06.31-.06.46s.02.3.06.44c.04.15.11.28.2.41.09.12.22.22.39.3.16.07.37.11.62.11s.47-.04.64-.12c.17-.08.3-.18.39-.3.09-.12.16-.25.19-.4.03-.15.05-.3.05-.44ZM170.52,203.27v1.24h4.04v-1.24h1.59v4.84h-7.23v-4.84h1.6ZM170.52,206.89h4.04v-1.16h-4.04v1.16ZM177.99,200.09h-1.84v2.69h-1.59v-6.09h1.59v2.16h1.84v1.24Z"/>
    </g>
  </g>
  <g>
    <g>
      <polygon class="st1" points="100.74 52.21 106.32 46.63 102.88 43.19 93.86 52.21 102.88 61.23 106.32 57.79 100.74 52.21"/>
      <g>
        <polygon class="st1" points="126.4 43.19 122.96 46.63 128.54 52.21 122.96 57.79 126.4 61.23 135.42 52.21 126.4 43.19"/>
        <polygon class="st1" points="121.14 38.42 116.17 38.42 110.36 66 115.34 66 121.14 38.42"/>
      </g>
    </g>
    <g>
      <g>
        <g>
          <path class="st0" d="M165.6,103.2h0c.95-3.62-1.22-7.33-4.85-8.27-2.86-.75-5.88.45-7.45,2.95-1.6-.51-3.28-.98-5-1.42.82-2.87,1.48-5.79,1.99-8.73,2.1-12.34.17-20.93-5.44-24.17-7.12-4.11-18.52,1.44-30.21,13.43-11.69-11.98-23.09-17.53-30.21-13.42-3.99,2.3-6.14,7.32-6.27,14.54-3.61.99-5.73,4.72-4.74,8.33.78,2.86,3.33,4.87,6.29,4.98.36,1.64.79,3.31,1.27,5.02-16.24,4.13-26.75,11.23-26.75,19.46s10.5,15.31,26.73,19.45c-4.53,16.12-3.64,28.77,3.48,32.88,1.63.92,3.47,1.38,5.34,1.35,3.05,0,6.55-1.07,10.39-3.2.84.83,1.87,1.42,3.01,1.73.58.15,1.17.23,1.77.23,3.74,0,6.77-3.05,6.77-6.79,0-1.1-.27-2.19-.79-3.16,1.24-1.14,2.48-2.35,3.73-3.62,2.08,2.14,4.27,4.18,6.56,6.09,6.94,5.75,13.24,8.72,18.32,8.72,1.87.03,3.71-.44,5.33-1.35,5.61-3.24,7.55-11.82,5.44-24.17-.51-2.94-1.17-5.85-1.99-8.72,2.89-.73,5.75-1.61,8.55-2.64,11.74-4.35,18.21-10.32,18.21-16.8,0-4.6-3.26-8.98-9.46-12.7ZM123,73.12h0c8.54-7.07,15.98-9.66,20.43-7.09,4.45,2.57,5.93,10.31,4.07,21.24-.5,2.88-1.15,5.73-1.95,8.54-5.85-1.29-11.78-2.18-17.76-2.66-3.4-4.95-7.14-9.65-11.19-14.08,2.03-2.09,4.17-4.08,6.41-5.95ZM89.96,112.59h0s0,0,0,0c-2.08-4.58-3.89-9.28-5.41-14.08,4.91-1.08,9.89-1.87,14.9-2.35-1.71,2.58-3.37,5.28-4.98,8.08-1.62,2.8-3.12,5.59-4.5,8.34,0,0,0,0,0,0ZM94.46,127.54c1.61,2.78,3.27,5.48,4.99,8.08,0,0,0,0,0,0h0s0,0,0,0c-5.01-.48-9.99-1.27-14.91-2.35,1.52-4.8,3.33-9.51,5.42-14.09,1.4,2.79,2.9,5.59,4.5,8.36ZM96.91,126.13c-1.96-3.4-3.77-6.82-5.42-10.24,1.64-3.4,3.45-6.82,5.42-10.22,1.97-3.41,4.03-6.69,6.15-9.81,3.77-.28,7.64-.42,11.57-.42s7.8.15,11.58.43c2.12,3.12,4.18,6.4,6.15,9.8,1.97,3.41,3.78,6.83,5.42,10.23-1.64,3.4-3.45,6.83-5.42,10.23h0c-1.96,3.39-4.02,6.68-6.16,9.81-3.76.28-7.63.42-11.56.42s-7.8-.14-11.57-.42c-2.12-3.12-4.18-6.4-6.15-9.81ZM134.81,127.54c1.61-2.78,3.11-5.57,4.51-8.36h0c2.09,4.58,3.9,9.29,5.42,14.09-4.92,1.08-9.9,1.87-14.92,2.35,1.73-2.62,3.39-5.31,4.99-8.08ZM134.81,104.25h0c-1.62-2.8-3.28-5.49-4.97-8.07,5.01.49,9.98,1.27,14.9,2.35-1.52,4.8-3.33,9.5-5.42,14.08-1.4-2.79-2.9-5.58-4.51-8.36ZM114.64,81.14c3.4,3.72,6.57,7.64,9.5,11.74-3.12-.19-6.29-.28-9.5-.28-3.24,0-6.4.09-9.49.27,2.92-4.1,6.09-8.02,9.49-11.74ZM85.84,66.02c4.45-2.57,11.89.02,20.43,7.09,2.24,1.87,4.38,3.85,6.41,5.95-4.05,4.42-7.78,9.12-11.18,14.07-5.98.47-11.91,1.36-17.76,2.65-.47-1.65-.88-3.27-1.23-4.85,0,0,0,0,0,0h0s0,0,0,0c2.21-.89,3.79-2.89,4.16-5.24.57-3.7-1.96-7.16-5.66-7.74.1-4.49,1.1-9.76,4.85-11.92ZM73.41,130.04h0c-10.4-3.85-16.36-9.01-16.36-14.14s5.96-10.29,16.36-14.14c2.74-1.01,5.54-1.87,8.38-2.58,1.81,5.71,4,11.29,6.58,16.71-2.58,5.42-4.79,11.01-6.6,16.73-2.83-.71-5.62-1.57-8.35-2.57ZM109.08,156.21c-1.88-1.47-4.4-1.84-6.62-.98-3.49,1.35-5.22,5.28-3.87,8.77-3.94,2.16-9,3.92-12.75,1.76-4.45-2.57-5.93-10.31-4.07-21.24.5-2.87,1.15-5.72,1.95-8.52,5.86,1.29,11.8,2.18,17.78,2.65,3.4,4.93,7.14,9.63,11.18,14.05-1.2,1.24-2.4,2.4-3.6,3.5ZM114.63,150.65c-3.39-3.72-6.56-7.63-9.48-11.73,3.09.18,6.25.27,9.49.27s6.37-.09,9.48-.28c0,0,0,0,0,0h0s0,0,0,0c-2.93,4.1-6.09,8.01-9.49,11.73ZM143.43,165.77c-4.45,2.57-11.89-.02-20.43-7.09-2.25-1.87-4.39-3.86-6.42-5.96,4.04-4.42,7.78-9.12,11.19-14.05,5.98-.48,11.92-1.37,17.78-2.66.8,2.81,1.46,5.66,1.95,8.54,1.86,10.93.38,18.67-4.07,21.24ZM155.87,130.04h0c-2.74,1.01-5.54,1.87-8.37,2.58-1.81-5.72-4-11.31-6.58-16.72,2.57-5.41,4.77-11,6.58-16.72,1.67.42,3.28.88,4.83,1.36-.33,2.36.6,4.72,2.46,6.22,2.92,2.35,7.18,1.89,9.53-1.03,3.84,2.34,7.9,5.83,7.9,10.16,0,5.13-5.96,10.29-16.36,14.14Z"/>
          <path class="st1" d="M139.55,62.23c1.95,0,3.73.44,5.3,1.34,5.61,3.24,7.55,11.82,5.44,24.17-.51,2.94-1.17,5.86-1.99,8.73,1.73.44,3.4.91,5,1.42,1.26-2.01,3.45-3.17,5.74-3.17.57,0,1.14.07,1.71.22,3.62.95,5.79,4.65,4.85,8.27h0c6.19,3.72,9.46,8.09,9.46,12.7,0,6.48-6.47,12.45-18.21,16.8-2.8,1.03-5.65,1.91-8.55,2.64.82,2.87,1.48,5.78,1.99,8.72,2.1,12.34.17,20.93-5.44,24.17-1.58.89-3.35,1.36-5.16,1.36-.06,0-.11,0-.17,0-5.08,0-11.38-2.97-18.32-8.72-2.29-1.91-4.48-3.95-6.56-6.09-1.24,1.28-2.49,2.49-3.73,3.62.51.97.79,2.06.79,3.16,0,3.74-3.02,6.79-6.77,6.79-.6,0-1.19-.08-1.77-.23-1.14-.3-2.18-.9-3.01-1.73-3.83,2.12-7.33,3.2-10.39,3.2-.06,0-.11,0-.17,0-1.81,0-3.59-.47-5.17-1.36-7.12-4.11-8.01-16.76-3.48-32.88-16.23-4.13-26.73-11.23-26.73-19.45s10.51-15.32,26.75-19.46c-.48-1.71-.9-3.38-1.27-5.02-2.96-.11-5.5-2.13-6.29-4.98-.99-3.61,1.13-7.34,4.74-8.33.12-7.22,2.28-12.24,6.27-14.54,1.57-.91,3.35-1.34,5.3-1.34,6.87,0,15.8,5.43,24.91,14.77,9.11-9.34,18.04-14.77,24.91-14.77M82.5,90.93h0s0,0,0,0c0,0,0,0,0,0h0s0,0,0,0c.35,1.58.76,3.2,1.23,4.85,5.85-1.29,11.79-2.18,17.76-2.65,3.4-4.94,7.13-9.64,11.18-14.07-2.03-2.09-4.17-4.08-6.41-5.95-6.37-5.28-12.14-8.06-16.5-8.06-1.48,0-2.8.32-3.92.97-3.75,2.16-4.74,7.43-4.85,11.92,3.7.57,6.23,4.04,5.66,7.74-.37,2.36-1.94,4.35-4.16,5.24M123.01,73.12h0c-2.24,1.87-4.38,3.85-6.41,5.95,4.05,4.43,7.79,9.13,11.19,14.08,5.97.48,11.91,1.37,17.76,2.66.8-2.81,1.46-5.66,1.95-8.54,1.86-10.93.38-18.67-4.07-21.24-1.13-.65-2.44-.97-3.92-.97-4.36,0-10.13,2.78-16.5,8.06M105.15,92.87c3.09-.18,6.25-.27,9.49-.27,3.2,0,6.37.09,9.5.28-2.93-4.1-6.1-8.02-9.5-11.74-3.4,3.72-6.56,7.64-9.49,11.74M114.64,136.36c3.93,0,7.8-.14,11.56-.42,2.13-3.13,4.2-6.42,6.16-9.81h0c1.97-3.41,3.78-6.83,5.42-10.23-1.64-3.4-3.45-6.83-5.42-10.23-1.97-3.41-4.02-6.68-6.15-9.8-3.78-.28-7.66-.43-11.58-.43s-7.8.14-11.57.42c-2.12,3.12-4.18,6.4-6.15,9.81-1.97,3.41-3.78,6.82-5.42,10.22,1.65,3.42,3.46,6.84,5.42,10.24,1.97,3.41,4.03,6.69,6.15,9.81,3.77.28,7.64.42,11.57.42M89.96,112.59h0s0,0,0,0c1.39-2.76,2.89-5.54,4.5-8.34,1.62-2.8,3.28-5.5,4.98-8.08-5.01.48-9.98,1.27-14.9,2.35,1.52,4.8,3.33,9.5,5.41,14.08,0,0,0,0,0,0M139.32,112.61c2.09-4.58,3.9-9.28,5.42-14.08-4.92-1.08-9.89-1.86-14.9-2.35,1.7,2.58,3.35,5.27,4.97,8.07h0c1.61,2.78,3.11,5.57,4.51,8.36M73.41,130.04h0c2.74,1,5.53,1.86,8.35,2.57,1.81-5.72,4.01-11.31,6.6-16.73-2.57-5.41-4.77-10.99-6.58-16.71-2.84.71-5.63,1.57-8.38,2.58-10.4,3.86-16.36,9.01-16.36,14.14s5.96,10.29,16.36,14.14M147.5,132.62c2.83-.71,5.63-1.57,8.37-2.58h0c10.4-3.85,16.36-9.01,16.36-14.14,0-4.33-4.06-7.82-7.9-10.16-1.34,1.66-3.3,2.53-5.28,2.53-1.49,0-3-.49-4.25-1.5-1.86-1.5-2.79-3.86-2.46-6.22-1.55-.49-3.16-.94-4.83-1.36-1.81,5.72-4,11.3-6.58,16.72,2.58,5.42,4.78,11,6.58,16.72M99.45,135.62s0,0,0,0h0s0,0,0,0c-1.72-2.6-3.38-5.29-4.99-8.08-1.6-2.77-3.11-5.57-4.5-8.36-2.09,4.58-3.9,9.29-5.42,14.09,4.92,1.08,9.9,1.87,14.91,2.35M129.82,135.62c5.01-.48,10-1.27,14.92-2.35-1.52-4.8-3.33-9.51-5.42-14.09h0c-1.4,2.79-2.9,5.58-4.51,8.36-1.6,2.77-3.26,5.46-4.99,8.08M139.51,166.74c1.48,0,2.8-.32,3.92-.97,4.45-2.57,5.93-10.31,4.07-21.24-.5-2.88-1.15-5.73-1.95-8.54-5.86,1.3-11.8,2.19-17.78,2.66-3.4,4.93-7.14,9.63-11.19,14.05,2.03,2.1,4.18,4.09,6.42,5.96,6.37,5.28,12.14,8.06,16.5,8.06M89.79,166.75c2.94,0,6.13-1.28,8.8-2.75-1.35-3.49.38-7.42,3.87-8.77.79-.31,1.62-.46,2.45-.46,1.49,0,2.96.49,4.17,1.44,1.2-1.1,2.4-2.27,3.6-3.5-4.05-4.42-7.78-9.11-11.18-14.05-5.98-.47-11.92-1.36-17.78-2.65-.8,2.8-1.45,5.65-1.95,8.52-1.86,10.93-.38,18.67,4.07,21.24,1.21.7,2.55.99,3.94.99M114.64,139.19c-3.24,0-6.4-.09-9.49-.27,2.92,4.1,6.09,8.01,9.48,11.73,3.39-3.72,6.56-7.64,9.49-11.73,0,0,0,0,0,0h0s0,0,0,0c-3.11.18-6.27.28-9.48.28M139.55,61.71v.52-.52c-6.82,0-15.65,5.16-24.91,14.55-9.25-9.38-18.09-14.55-24.91-14.55-2.06,0-3.93.48-5.56,1.41-4.07,2.35-6.32,7.39-6.51,14.6-3.65,1.21-5.76,5.1-4.73,8.85.81,2.96,3.34,5.06,6.37,5.33.31,1.36.66,2.76,1.05,4.17-7.94,2.07-14.55,4.88-19.13,8.14-4.91,3.5-7.5,7.54-7.5,11.68s2.59,8.18,7.5,11.67c4.58,3.26,11.18,6.07,19.11,8.14-2.18,7.91-3.04,15.03-2.5,20.62.58,6,2.78,10.26,6.36,12.33,1.66.93,3.53,1.43,5.43,1.43.06,0,.12,0,.18,0,3.05,0,6.52-1.04,10.3-3.08.85.75,1.86,1.3,2.96,1.59.62.17,1.26.25,1.9.25,4.02,0,7.29-3.29,7.28-7.31,0-1.05-.23-2.09-.67-3.04,1.03-.95,2.07-1.96,3.1-3,1.97,2.01,4.07,3.94,6.23,5.75,6.98,5.78,13.43,8.84,18.65,8.84.05,0,.11,0,.17,0,1.89,0,3.77-.49,5.41-1.42,5.82-3.36,7.84-12.13,5.7-24.7-.48-2.77-1.11-5.55-1.86-8.27,2.73-.7,5.45-1.55,8.09-2.52,11.96-4.43,18.54-10.57,18.54-17.28,0-4.7-3.24-9.17-9.38-12.94.37-1.77.07-3.58-.85-5.15-.98-1.68-2.57-2.88-4.45-3.37-.6-.16-1.22-.24-1.84-.24-2.39,0-4.59,1.14-5.96,3.08-1.33-.41-2.72-.81-4.15-1.18.75-2.72,1.38-5.5,1.86-8.27,2.14-12.57.12-21.35-5.69-24.7-1.62-.94-3.49-1.41-5.56-1.41h0ZM81.52,77.52c.15-4.02,1.08-9.03,4.58-11.05,1.03-.6,2.27-.9,3.67-.9,4.25,0,9.99,2.82,16.17,7.94,2.09,1.75,4.12,3.62,6.03,5.56-3.87,4.26-7.49,8.82-10.76,13.56-5.74.46-11.49,1.32-17.11,2.54-.37-1.33-.71-2.66-1-3.95,2.16-1.03,3.7-3.09,4.07-5.47.3-1.93-.17-3.85-1.32-5.42-1.06-1.45-2.58-2.44-4.32-2.82h0ZM123.2,73.63l.13-.11c6.18-5.12,11.93-7.95,16.18-7.95,1.4,0,2.63.3,3.67.9,4.25,2.45,5.64,10,3.82,20.71-.47,2.69-1.07,5.39-1.81,8.02-5.62-1.22-11.38-2.07-17.11-2.55-3.27-4.74-6.89-9.31-10.77-13.57,1.87-1.91,3.85-3.74,5.89-5.45h0ZM106.2,92.3c2.62-3.6,5.45-7.1,8.44-10.4,2.99,3.3,5.83,6.79,8.45,10.4-2.79-.15-5.62-.22-8.45-.22-2.86,0-5.69.07-8.44.22h0ZM103.35,96.35c3.7-.27,7.5-.4,11.29-.4s7.58.14,11.29.41c2.09,3.08,4.1,6.3,5.99,9.57,1.9,3.29,3.68,6.65,5.29,9.97-1.58,3.26-3.32,6.54-5.17,9.76l-.12.21c-1.88,3.26-3.9,6.48-6,9.57-3.69.27-7.48.4-11.28.4s-7.58-.14-11.29-.4c-2.08-3.07-4.09-6.28-5.99-9.57-1.9-3.29-3.68-6.64-5.29-9.98,1.61-3.31,3.39-6.67,5.29-9.97,1.9-3.29,3.91-6.5,5.99-9.57h0ZM85.21,98.9c4.35-.94,8.79-1.64,13.21-2.11-1.5,2.31-2.98,4.73-4.41,7.2-1.43,2.47-2.78,4.96-4.03,7.41-1.81-4.07-3.41-8.27-4.78-12.5h0ZM135.18,103.86c-1.41-2.43-2.86-4.8-4.33-7.07,4.43.47,8.86,1.18,13.22,2.11-1.36,4.24-2.97,8.44-4.78,12.51-1.26-2.47-2.61-4.97-4.03-7.42l-.07-.13h0ZM73.72,129.6l-.14-.05c-10.18-3.77-16.02-8.75-16.02-13.66s5.84-9.89,16.02-13.66c2.56-.94,5.2-1.76,7.85-2.44,1.76,5.48,3.89,10.89,6.35,16.09-2.47,5.21-4.61,10.62-6.37,16.11-2.59-.67-5.18-1.47-7.69-2.39h0ZM141.49,115.9c2.46-5.2,4.6-10.61,6.35-16.1,1.35.35,2.66.72,3.93,1.11-.19,2.38.82,4.75,2.7,6.25,1.29,1.04,2.92,1.61,4.57,1.61,2.07,0,4.01-.86,5.39-2.37,3.41,2.14,7.29,5.46,7.29,9.49,0,4.91-5.84,9.89-16.02,13.66l-.21.08c-2.5.91-5.06,1.7-7.64,2.37-1.75-5.49-3.89-10.9-6.35-16.1h0ZM85.2,132.89c1.37-4.24,2.97-8.44,4.79-12.51,1.25,2.46,2.6,4.95,4.03,7.42,1.42,2.46,2.9,4.88,4.41,7.2-4.43-.46-8.87-1.17-13.23-2.11h0ZM130.84,135c1.52-2.34,3-4.75,4.41-7.2,1.41-2.44,2.76-4.93,4.03-7.42,1.81,4.07,3.42,8.27,4.79,12.51-4.35.94-8.8,1.65-13.23,2.11h0ZM128.06,139.15c5.74-.47,11.5-1.33,17.13-2.55.74,2.63,1.34,5.33,1.81,8.02,1.82,10.7.43,18.25-3.82,20.7-1.04.6-2.27.9-3.67.9-4.25,0-9.99-2.82-16.17-7.95-2.1-1.75-4.13-3.62-6.04-5.58,3.87-4.26,7.49-8.82,10.76-13.55h0ZM89.79,166.24c-1.39,0-2.63-.31-3.69-.92-4.25-2.45-5.64-10-3.82-20.7.47-2.68,1.07-5.37,1.81-8,5.63,1.22,11.39,2.07,17.13,2.54,3.27,4.73,6.89,9.28,10.76,13.54-.97.99-1.96,1.95-2.93,2.85-1.21-.83-2.66-1.28-4.13-1.28-.9,0-1.79.17-2.63.49-3.61,1.4-5.47,5.37-4.32,9.01-3.1,1.64-5.85,2.48-8.17,2.48h0ZM114.64,139.71c2.81,0,5.64-.07,8.43-.22-2.62,3.6-5.45,7.09-8.44,10.39-2.99-3.3-5.82-6.79-8.43-10.39,2.75.14,5.58.22,8.44.22h0Z"/>
        </g>
        <g>
          <path class="st1" d="M139.55,62.23c1.95,0,3.73.44,5.3,1.34,5.61,3.24,7.55,11.82,5.44,24.17-.51,2.94-1.17,5.86-1.99,8.73,1.73.44,3.4.91,5,1.42,1.26-2.01,3.45-3.17,5.74-3.17.57,0,1.14.07,1.71.22,3.62.95,5.79,4.65,4.85,8.27h0c6.19,3.72,9.46,8.09,9.46,12.7,0,6.48-6.46,12.45-18.21,16.8-2.8,1.03-5.65,1.91-8.55,2.64.82,2.87,1.48,5.78,1.99,8.72,2.1,12.34.17,20.93-5.44,24.17-1.58.89-3.35,1.36-5.16,1.36-.06,0-.11,0-.17,0-5.08,0-11.38-2.97-18.32-8.72-2.29-1.91-4.48-3.95-6.56-6.09-1.24,1.28-2.49,2.49-3.73,3.62.51.97.79,2.06.79,3.16,0,3.74-3.02,6.79-6.77,6.79-.6,0-1.19-.08-1.77-.23-1.14-.3-2.18-.9-3.01-1.73-3.83,2.12-7.33,3.2-10.39,3.2-.06,0-.11,0-.17,0-1.81,0-3.59-.47-5.17-1.36-7.12-4.11-8.01-16.76-3.48-32.88-16.23-4.13-26.73-11.23-26.73-19.45s10.51-15.32,26.75-19.46c-.48-1.71-.9-3.38-1.27-5.02-2.96-.11-5.5-2.13-6.29-4.98-.99-3.61,1.13-7.34,4.74-8.33.12-7.22,2.28-12.24,6.27-14.54,1.57-.91,3.35-1.34,5.3-1.34,6.87,0,15.8,5.43,24.91,14.77,9.11-9.34,18.04-14.77,24.91-14.77M82.5,90.93h0s0,0,0,0c0,0,0,0,0,0h0s0,0,0,0c.35,1.58.76,3.2,1.23,4.85,5.85-1.29,11.79-2.18,17.76-2.65,3.4-4.94,7.13-9.64,11.18-14.07-2.03-2.09-4.17-4.08-6.41-5.95-6.37-5.28-12.14-8.06-16.5-8.06-1.48,0-2.8.32-3.92.97-3.75,2.16-4.74,7.43-4.85,11.92,3.7.57,6.23,4.04,5.66,7.74-.37,2.36-1.94,4.35-4.16,5.24M123.01,73.12h0c-2.24,1.87-4.38,3.85-6.41,5.95,4.05,4.43,7.79,9.13,11.19,14.08,5.97.48,11.91,1.37,17.76,2.66.8-2.81,1.46-5.66,1.95-8.54,1.86-10.93.38-18.67-4.07-21.24-1.13-.65-2.44-.97-3.92-.97-4.36,0-10.13,2.78-16.5,8.06M105.15,92.87c3.09-.18,6.25-.27,9.49-.27,3.2,0,6.37.09,9.5.28-2.93-4.1-6.1-8.02-9.5-11.74-3.4,3.72-6.56,7.64-9.49,11.74M114.64,136.36c3.93,0,7.8-.14,11.56-.42,2.13-3.13,4.2-6.42,6.16-9.81h0c1.97-3.41,3.78-6.83,5.42-10.23-1.64-3.4-3.45-6.83-5.42-10.23-1.97-3.41-4.02-6.68-6.15-9.8-3.78-.28-7.66-.43-11.58-.43s-7.8.14-11.57.42c-2.12,3.12-4.18,6.4-6.15,9.81-1.97,3.41-3.78,6.82-5.42,10.22,1.65,3.42,3.46,6.84,5.42,10.24,1.97,3.41,4.03,6.69,6.15,9.81,3.77.28,7.64.42,11.57.42M89.96,112.59h0s0,0,0,0c1.39-2.76,2.89-5.54,4.5-8.34,1.62-2.8,3.28-5.5,4.98-8.08-5.01.48-9.98,1.27-14.9,2.35,1.52,4.8,3.33,9.5,5.41,14.08h0M139.32,112.61c2.09-4.58,3.9-9.28,5.42-14.08-4.92-1.08-9.89-1.86-14.9-2.35,1.7,2.58,3.35,5.27,4.97,8.07h0c1.61,2.78,3.11,5.57,4.51,8.36M73.41,130.04h0c2.74,1,5.53,1.86,8.35,2.57,1.81-5.72,4.01-11.31,6.6-16.73-2.57-5.41-4.77-10.99-6.58-16.71-2.84.71-5.63,1.57-8.38,2.58-10.4,3.86-16.36,9.01-16.36,14.14s5.96,10.29,16.36,14.14M147.5,132.62c2.83-.71,5.63-1.57,8.37-2.58h0c10.4-3.85,16.36-9.01,16.36-14.14,0-4.33-4.06-7.82-7.9-10.16-1.34,1.66-3.3,2.53-5.28,2.53-1.49,0-3-.49-4.25-1.5-1.86-1.5-2.79-3.86-2.46-6.22-1.55-.49-3.16-.94-4.83-1.36-1.81,5.72-4,11.3-6.58,16.72,2.58,5.42,4.78,11,6.58,16.72M99.45,135.62s0,0,0,0h0s0,0,0,0c-1.72-2.6-3.38-5.29-4.99-8.08-1.6-2.77-3.11-5.57-4.5-8.36-2.09,4.58-3.9,9.29-5.42,14.09,4.92,1.08,9.9,1.87,14.91,2.35M129.82,135.62c5.01-.48,10-1.27,14.92-2.35-1.52-4.8-3.33-9.51-5.42-14.09h0c-1.4,2.79-2.9,5.58-4.51,8.36-1.6,2.77-3.26,5.46-4.99,8.08M139.51,166.74c1.48,0,2.8-.32,3.92-.97,4.45-2.57,5.93-10.31,4.07-21.24-.5-2.88-1.15-5.73-1.95-8.54-5.86,1.3-11.8,2.19-17.78,2.66-3.4,4.93-7.14,9.63-11.19,14.05,2.03,2.1,4.18,4.09,6.42,5.96,6.37,5.28,12.14,8.06,16.5,8.06M89.79,166.75c2.94,0,6.13-1.28,8.8-2.75-1.35-3.49.38-7.42,3.87-8.77.79-.31,1.62-.46,2.45-.46,1.49,0,2.96.49,4.17,1.44,1.2-1.1,2.4-2.27,3.6-3.5-4.05-4.42-7.78-9.11-11.18-14.05-5.98-.47-11.92-1.36-17.78-2.65-.8,2.8-1.45,5.65-1.95,8.52-1.86,10.93-.38,18.67,4.07,21.24,1.21.7,2.55.99,3.94.99M114.64,139.19c-3.24,0-6.4-.09-9.49-.27,2.92,4.1,6.09,8.01,9.48,11.73,3.39-3.72,6.56-7.64,9.49-11.73,0,0,0,0,0,0h0c-3.11.18-6.27.28-9.48.28M139.55,61.53c-6.84,0-15.67,5.13-24.91,14.47-9.24-9.34-18.07-14.47-24.91-14.47-2.1,0-4,.48-5.65,1.44-4.1,2.37-6.38,7.42-6.6,14.63-3.67,1.29-5.77,5.22-4.73,9.03.82,2.99,3.35,5.13,6.39,5.45.29,1.26.61,2.56.97,3.87-7.88,2.07-14.44,4.87-19.01,8.12-4.96,3.53-7.58,7.62-7.58,11.83s2.62,8.29,7.57,11.82c4.56,3.25,11.12,6.05,18.99,8.12-2.15,7.86-3,14.94-2.46,20.51.58,6.06,2.81,10.37,6.45,12.47,1.68.95,3.59,1.45,5.52,1.45h.18c3.05,0,6.51-1.02,10.27-3.04.85.73,1.85,1.26,2.94,1.55.63.17,1.29.26,1.94.26,4.13,0,7.47-3.37,7.47-7.49,0-1.03-.22-2.05-.63-2.99.95-.89,1.92-1.82,2.87-2.79,1.94,1.97,4,3.86,6.12,5.63,7.01,5.81,13.5,8.88,18.77,8.88h.17c1.93,0,3.83-.5,5.5-1.45,5.89-3.4,7.94-12.24,5.79-24.89-.47-2.72-1.08-5.44-1.81-8.11,2.67-.7,5.34-1.53,7.92-2.48,12.04-4.46,18.66-10.66,18.66-17.45,0-4.74-3.24-9.24-9.36-13.03.34-1.77.02-3.59-.9-5.16-1.01-1.72-2.63-2.95-4.56-3.46-.62-.16-1.25-.24-1.89-.24-2.41,0-4.62,1.13-6.03,3.05-1.24-.38-2.53-.75-3.85-1.09.73-2.67,1.34-5.39,1.81-8.11,2.15-12.66.1-21.49-5.78-24.89-1.65-.95-3.55-1.44-5.65-1.44h0ZM81.71,77.38c.16-3.95,1.1-8.8,4.48-10.75,1.01-.58,2.21-.88,3.57-.88,4.21,0,9.91,2.81,16.06,7.9,2.04,1.7,4.02,3.53,5.89,5.43-3.81,4.21-7.38,8.71-10.61,13.38-5.66.46-11.33,1.3-16.88,2.5-.34-1.23-.65-2.44-.92-3.63,2.14-1.08,3.67-3.15,4.04-5.54.6-3.87-1.89-7.51-5.63-8.41h0ZM123.3,73.78l.15-.13c6.15-5.1,11.85-7.9,16.06-7.9,1.36,0,2.57.29,3.57.88,4.18,2.41,5.54,9.89,3.73,20.52-.45,2.63-1.05,5.26-1.76,7.84-5.55-1.19-11.22-2.04-16.88-2.51-3.23-4.68-6.8-9.18-10.62-13.39,1.82-1.85,3.75-3.63,5.74-5.3h0ZM106.57,92.1c2.51-3.43,5.22-6.76,8.07-9.92,2.85,3.16,5.56,6.49,8.07,9.92-2.67-.13-5.37-.2-8.07-.2-2.73,0-5.44.07-8.07.2h0ZM103.45,96.53c3.67-.26,7.43-.4,11.18-.4s7.51.14,11.19.4c2.07,3.06,4.06,6.25,5.93,9.48,1.88,3.26,3.65,6.59,5.25,9.88-1.56,3.21-3.27,6.45-5.1,9.62l-.15.26c-1.86,3.23-3.86,6.42-5.94,9.49-3.65.26-7.41.39-11.18.39s-7.51-.13-11.18-.4c-2.06-3.04-4.05-6.23-5.93-9.48-1.88-3.26-3.64-6.58-5.25-9.89,1.6-3.29,3.36-6.61,5.25-9.88,1.88-3.25,3.87-6.45,5.93-9.49h0ZM85.45,99.03c4.15-.89,8.39-1.57,12.61-2.02-1.43,2.21-2.84,4.53-4.2,6.89-1.36,2.36-2.66,4.74-3.86,7.07-1.72-3.89-3.24-7.9-4.55-11.94h0ZM135.31,103.71c-1.33-2.3-2.7-4.54-4.09-6.7,4.23.46,8.46,1.14,12.62,2.02-1.31,4.04-2.84,8.05-4.56,11.94-1.21-2.36-2.51-4.74-3.86-7.09l-.1-.18h0ZM73.78,129.43l-.13-.05c-10.11-3.75-15.9-8.66-15.9-13.49s5.8-9.74,15.9-13.49c2.5-.92,5.08-1.72,7.67-2.39,1.74,5.4,3.85,10.74,6.27,15.87-2.43,5.14-4.55,10.48-6.29,15.89-2.53-.66-5.06-1.44-7.51-2.34h0ZM141.69,115.9c2.42-5.13,4.53-10.47,6.27-15.87,1.24.32,2.45.66,3.62,1.02-.14,2.39.89,4.75,2.77,6.26,1.32,1.07,2.99,1.65,4.69,1.65,2.07,0,4.01-.84,5.42-2.32,3.34,2.11,7.07,5.35,7.07,9.26,0,4.83-5.8,9.74-15.9,13.49l-.21.08c-2.44.89-4.94,1.66-7.45,2.32-1.74-5.41-3.85-10.75-6.27-15.88h0ZM85.44,132.75c1.31-4.05,2.84-8.06,4.56-11.95,1.2,2.35,2.5,4.73,3.86,7.09,1.36,2.35,2.77,4.66,4.21,6.88-4.23-.46-8.47-1.14-12.63-2.02h0ZM131.21,134.78c1.45-2.24,2.86-4.55,4.21-6.89,1.35-2.33,2.64-4.71,3.86-7.09,1.72,3.89,3.25,7.9,4.56,11.95-4.16.89-8.4,1.57-12.63,2.03h0ZM128.16,139.33c5.66-.47,11.34-1.31,16.9-2.51.71,2.57,1.3,5.21,1.76,7.83,1.81,10.62.45,18.1-3.73,20.51-1.01.58-2.21.88-3.57.88-4.21,0-9.91-2.81-16.06-7.9-2.05-1.71-4.03-3.54-5.91-5.44,3.81-4.21,7.38-8.7,10.61-13.37h0ZM89.79,166.05c-1.36,0-2.57-.3-3.6-.89-4.18-2.41-5.54-9.89-3.73-20.51.45-2.62,1.04-5.25,1.75-7.81,5.56,1.2,11.23,2.04,16.9,2.5,3.23,4.66,6.8,9.15,10.61,13.36-.9.91-1.8,1.79-2.69,2.62-1.22-.8-2.66-1.23-4.12-1.23-.93,0-1.84.17-2.7.51-1.86.72-3.33,2.13-4.14,3.95-.72,1.64-.84,3.44-.33,5.13-3.02,1.58-5.69,2.38-7.95,2.38h0ZM114.64,139.89c2.68,0,5.39-.07,8.06-.2-2.51,3.43-5.22,6.76-8.06,9.92-2.85-3.15-5.55-6.48-8.06-9.91,2.63.13,5.34.2,8.06.2h0Z"/>
          <path class="st1" d="M139.55,61.53c2.1,0,4,.48,5.65,1.44,5.88,3.4,7.94,12.24,5.78,24.89-.47,2.72-1.08,5.44-1.81,8.11,1.32.35,2.61.71,3.85,1.09,1.41-1.92,3.62-3.05,6.03-3.05.64,0,1.27.08,1.89.24,1.93.5,3.55,1.73,4.56,3.46.92,1.57,1.23,3.38.9,5.16,6.13,3.79,9.36,8.29,9.36,13.03,0,6.79-6.63,12.99-18.66,17.45-2.59.95-5.25,1.78-7.92,2.48.73,2.66,1.34,5.39,1.81,8.11,2.15,12.65.1,21.49-5.79,24.89-1.68.95-3.58,1.45-5.5,1.45h-.17c-5.26,0-11.75-3.07-18.77-8.88-2.12-1.77-4.17-3.66-6.12-5.63-.96.97-1.92,1.9-2.87,2.79.41.94.63,1.97.63,2.99,0,4.12-3.34,7.48-7.47,7.49-.66,0-1.31-.09-1.94-.26-1.08-.29-2.09-.82-2.94-1.55-3.76,2.02-7.22,3.04-10.27,3.04h-.18c-1.93,0-3.83-.5-5.52-1.45-3.64-2.1-5.87-6.41-6.45-12.47-.54-5.57.32-12.65,2.46-20.51-7.88-2.07-14.43-4.87-18.99-8.12-4.95-3.53-7.57-7.62-7.57-11.82s2.62-8.3,7.58-11.83c4.56-3.25,11.13-6.05,19.01-8.12-.36-1.31-.68-2.6-.97-3.87-3.04-.33-5.57-2.47-6.39-5.45-1.04-3.81,1.06-7.74,4.73-9.03.22-7.2,2.5-12.26,6.6-14.63,1.65-.95,3.55-1.44,5.65-1.44,6.84,0,15.67,5.13,24.91,14.47,9.24-9.34,18.07-14.47,24.91-14.47M114.64,76.99c-9.11-9.34-18.04-14.77-24.91-14.77h0c-1.95,0-3.73.44-5.3,1.34-3.99,2.3-6.14,7.32-6.27,14.54-3.61.99-5.73,4.72-4.74,8.33.78,2.86,3.33,4.87,6.29,4.98.36,1.64.79,3.31,1.27,5.02-16.24,4.13-26.75,11.23-26.75,19.46s10.5,15.31,26.73,19.45c-4.53,16.12-3.64,28.77,3.48,32.88,1.58.89,3.36,1.36,5.17,1.36.06,0,.11,0,.17,0,3.05,0,6.55-1.07,10.39-3.2.84.83,1.87,1.42,3.01,1.73.58.15,1.17.23,1.77.23,3.74,0,6.77-3.05,6.77-6.79,0-1.1-.27-2.19-.79-3.16,1.24-1.14,2.48-2.35,3.73-3.62,2.08,2.14,4.27,4.18,6.56,6.09,6.94,5.75,13.24,8.72,18.32,8.72.06,0,.11,0,.17,0,1.81,0,3.59-.47,5.16-1.36,5.61-3.24,7.55-11.82,5.44-24.17-.51-2.94-1.17-5.85-1.99-8.72,2.89-.73,5.75-1.61,8.55-2.64,11.74-4.35,18.21-10.32,18.21-16.8,0-4.6-3.26-8.98-9.46-12.7h0c.95-3.62-1.22-7.33-4.85-8.27-.57-.15-1.14-.22-1.71-.22-2.29,0-4.48,1.17-5.74,3.17-1.6-.51-3.28-.98-5-1.42.82-2.87,1.48-5.79,1.99-8.73,2.1-12.34.17-20.93-5.44-24.17-1.57-.91-3.35-1.34-5.3-1.34-6.87,0-15.8,5.43-24.91,14.77M89.77,65.05c4.36,0,10.13,2.78,16.5,8.06,2.24,1.87,4.38,3.85,6.41,5.95-4.05,4.42-7.78,9.12-11.18,14.07-5.98.47-11.91,1.36-17.76,2.65-.47-1.65-.88-3.27-1.23-4.85,2.21-.89,3.79-2.89,4.16-5.24.57-3.7-1.96-7.16-5.66-7.74.1-4.49,1.1-9.76,4.85-11.92,1.13-.65,2.44-.97,3.92-.97h0M84.23,94.96c5.55-1.2,11.22-2.03,16.88-2.5,3.23-4.67,6.8-9.17,10.61-13.38-1.87-1.9-3.85-3.72-5.89-5.43-6.15-5.1-11.85-7.9-16.06-7.9-1.36,0-2.57.29-3.57.88-3.38,1.95-4.32,6.8-4.48,10.75,3.74.9,6.23,4.55,5.63,8.41-.37,2.39-1.9,4.46-4.04,5.54.27,1.19.58,2.4.92,3.63M139.51,65.05c1.48,0,2.8.32,3.92.97,4.45,2.57,5.93,10.31,4.07,21.24-.5,2.88-1.15,5.73-1.95,8.54-5.85-1.29-11.78-2.18-17.76-2.66-3.4-4.95-7.14-9.65-11.19-14.08,2.03-2.09,4.17-4.08,6.41-5.95h0c6.37-5.28,12.14-8.06,16.5-8.06M145.05,94.98c.71-2.58,1.3-5.21,1.76-7.84,1.81-10.63.45-18.1-3.73-20.52-1.01-.58-2.21-.88-3.57-.88-4.21,0-9.91,2.81-16.06,7.9l-.15.13c-1.99,1.67-3.92,3.45-5.74,5.3,3.82,4.21,7.39,8.72,10.62,13.39,5.65.47,11.33,1.31,16.88,2.51M114.64,81.14c3.4,3.72,6.57,7.64,9.5,11.74-3.12-.19-6.29-.28-9.5-.28-3.24,0-6.4.09-9.49.27,2.92-4.1,6.09-8.02,9.49-11.74M106.57,92.1c2.63-.13,5.34-.19,8.07-.2,2.7,0,5.4.07,8.07.2-2.51-3.44-5.22-6.77-8.07-9.92-2.85,3.16-5.55,6.48-8.07,9.92M82.5,90.93h0s0,0,0,0h0M82.5,90.93h0s0,0,0,0M82.5,90.93h0s0,0,0,0M114.64,95.43c3.92,0,7.8.15,11.58.43,2.12,3.12,4.18,6.4,6.15,9.8,1.97,3.41,3.78,6.83,5.42,10.23-1.64,3.4-3.45,6.83-5.42,10.23h0c-1.96,3.39-4.02,6.68-6.16,9.81-3.76.28-7.63.42-11.56.42s-7.8-.14-11.57-.42c-2.12-3.12-4.18-6.4-6.15-9.81-1.96-3.4-3.77-6.82-5.42-10.24,1.64-3.4,3.45-6.82,5.42-10.22,1.97-3.41,4.03-6.69,6.15-9.81,3.77-.28,7.64-.42,11.57-.42M114.64,135.66c3.76,0,7.52-.13,11.18-.39,2.08-3.07,4.08-6.26,5.94-9.49l.15-.26c1.83-3.18,3.54-6.41,5.1-9.62-1.6-3.3-3.37-6.62-5.25-9.88-1.87-3.24-3.86-6.42-5.93-9.48-3.68-.27-7.44-.4-11.19-.4s-7.51.13-11.18.4c-2.06,3.04-4.05,6.23-5.93,9.49-1.89,3.27-3.65,6.59-5.25,9.88,1.6,3.31,3.37,6.63,5.25,9.89,1.88,3.26,3.87,6.45,5.93,9.48,3.68.26,7.44.4,11.18.4M99.45,96.17c-1.71,2.58-3.37,5.28-4.98,8.08-1.62,2.8-3.12,5.59-4.5,8.34,0,0,0,0,0,0h0s0,0,0,0c-2.08-4.58-3.89-9.28-5.41-14.08,4.91-1.08,9.89-1.87,14.9-2.35M90,110.97c1.2-2.34,2.5-4.71,3.86-7.07,1.36-2.36,2.77-4.67,4.2-6.89-4.23.46-8.46,1.14-12.61,2.02,1.31,4.04,2.84,8.05,4.55,11.94M129.84,96.17c5.01.49,9.98,1.27,14.9,2.35-1.52,4.8-3.33,9.5-5.42,14.08-1.4-2.79-2.9-5.58-4.51-8.36h0c-1.62-2.8-3.28-5.49-4.97-8.07M139.28,110.98c1.72-3.89,3.25-7.9,4.56-11.94-4.15-.88-8.39-1.56-12.62-2.02,1.39,2.15,2.76,4.4,4.09,6.7h0s.1.18.1.18c1.35,2.35,2.65,4.72,3.86,7.09M81.79,99.17c1.81,5.71,4,11.29,6.58,16.71-2.58,5.42-4.79,11.01-6.6,16.73-2.83-.71-5.62-1.57-8.35-2.57h0c-10.4-3.85-16.36-9.01-16.36-14.14s5.96-10.29,16.36-14.14c2.74-1.01,5.54-1.87,8.38-2.58M81.3,131.77c1.74-5.41,3.86-10.75,6.29-15.89-2.42-5.13-4.53-10.46-6.27-15.87-2.59.67-5.16,1.47-7.67,2.39-10.11,3.75-15.9,8.66-15.9,13.49s5.8,9.74,15.9,13.49l.13.05c2.46.9,4.98,1.68,7.51,2.34M147.49,99.18c1.67.42,3.28.88,4.83,1.36-.33,2.36.6,4.72,2.46,6.22,1.25,1.01,2.76,1.5,4.25,1.5,1.98,0,3.94-.86,5.28-2.53,3.84,2.34,7.9,5.83,7.9,10.16,0,5.13-5.96,10.29-16.36,14.14h0c-2.74,1.01-5.54,1.87-8.37,2.58-1.81-5.72-4-11.31-6.58-16.72,2.57-5.41,4.77-11,6.58-16.72M147.96,131.78c2.51-.65,5.01-1.43,7.45-2.32l.21-.08c10.11-3.75,15.9-8.66,15.9-13.49,0-3.9-3.73-7.14-7.07-9.26-1.41,1.48-3.35,2.32-5.42,2.32-1.7,0-3.36-.59-4.69-1.65-1.88-1.51-2.91-3.87-2.77-6.26-1.17-.36-2.38-.7-3.62-1.02-1.74,5.41-3.85,10.74-6.27,15.87,2.43,5.13,4.54,10.47,6.27,15.88M89.96,119.18c1.4,2.79,2.9,5.59,4.5,8.36,1.61,2.78,3.27,5.48,4.99,8.08,0,0,0,0,0,0h0s0,0,0,0c-5.01-.48-9.99-1.27-14.91-2.35,1.52-4.8,3.33-9.51,5.42-14.09M98.06,134.78c-1.44-2.22-2.85-4.53-4.21-6.88-1.36-2.36-2.66-4.74-3.86-7.09-1.72,3.89-3.25,7.9-4.56,11.95,4.16.89,8.4,1.57,12.63,2.02M139.32,119.18c2.09,4.58,3.9,9.29,5.42,14.09-4.92,1.08-9.9,1.87-14.92,2.35,1.73-2.62,3.39-5.31,4.99-8.08,1.61-2.78,3.11-5.57,4.51-8.36h0M131.21,134.78c4.23-.46,8.47-1.14,12.63-2.03-1.31-4.05-2.84-8.06-4.56-11.95-1.22,2.38-2.52,4.76-3.86,7.09-1.35,2.34-2.76,4.65-4.21,6.89M145.55,135.99c.8,2.81,1.46,5.66,1.95,8.54,1.86,10.93.38,18.67-4.07,21.24-1.13.65-2.44.97-3.92.97-4.36,0-10.13-2.78-16.5-8.06-2.25-1.87-4.39-3.86-6.42-5.96,4.05-4.42,7.78-9.12,11.19-14.05,5.98-.48,11.92-1.37,17.78-2.66M139.51,166.04c1.37,0,2.57-.29,3.57-.88,4.18-2.41,5.54-9.89,3.73-20.51-.45-2.63-1.05-5.26-1.76-7.83-5.56,1.2-11.23,2.04-16.9,2.51-3.24,4.66-6.8,9.16-10.61,13.37,1.87,1.91,3.86,3.73,5.91,5.44,6.15,5.1,11.85,7.9,16.06,7.9M83.72,136.01c5.86,1.29,11.8,2.18,17.78,2.65,3.4,4.93,7.14,9.63,11.18,14.05-1.2,1.24-2.4,2.4-3.6,3.5-1.21-.94-2.68-1.44-4.17-1.44-.83,0-1.66.15-2.45.46-3.49,1.35-5.22,5.28-3.87,8.77-2.67,1.46-5.86,2.75-8.8,2.75-1.4,0-2.74-.29-3.94-.99-4.45-2.57-5.93-10.31-4.07-21.24.5-2.87,1.15-5.72,1.95-8.52M89.79,166.05c2.26,0,4.93-.8,7.95-2.38-.5-1.7-.39-3.5.33-5.13.81-1.83,2.28-3.23,4.14-3.95.87-.34,1.77-.51,2.7-.51,1.46,0,2.9.44,4.12,1.23.89-.83,1.8-1.71,2.69-2.62-3.81-4.21-7.38-8.7-10.61-13.36-5.66-.46-11.34-1.3-16.9-2.5-.71,2.57-1.3,5.19-1.75,7.81-1.81,10.63-.45,18.1,3.73,20.51,1.03.59,2.23.89,3.6.89M124.12,138.91s0,0,0,0c0,0,0,0,0,0h0M124.12,138.91c-2.93,4.1-6.09,8.01-9.49,11.73-3.39-3.72-6.56-7.63-9.48-11.73,3.09.18,6.25.27,9.49.27s6.37-.09,9.48-.28M122.69,139.69c-2.67.13-5.37.2-8.06.2s-5.43-.07-8.06-.2c2.51,3.43,5.21,6.76,8.06,9.91,2.84-3.16,5.55-6.49,8.06-9.92M139.55,61.01v.52s0-.52,0-.52c-6.87,0-15.71,5.06-24.91,14.26-9.2-9.2-18.03-14.25-24.91-14.25-2.19,0-4.18.51-5.91,1.51-4.19,2.42-6.56,7.5-6.85,14.71-3.73,1.5-5.8,5.61-4.73,9.53.84,3.07,3.36,5.3,6.47,5.78.23,1,.49,2.01.76,3.04-7.72,2.07-14.17,4.86-18.68,8.07-5.1,3.63-7.8,7.87-7.8,12.25s2.69,8.61,7.79,12.24c4.51,3.21,10.95,6,18.66,8.07-2.06,7.71-2.87,14.69-2.34,20.19.6,6.23,2.92,10.68,6.71,12.87,1.76.99,3.76,1.52,5.78,1.52h.18c3.05,0,6.48-.99,10.2-2.94.85.66,1.83,1.15,2.87,1.43.68.18,1.37.27,2.08.27,4.41,0,7.99-3.6,7.98-8.01,0-.97-.19-1.95-.54-2.86.75-.7,1.51-1.44,2.26-2.19,1.84,1.85,3.79,3.63,5.79,5.29,7.11,5.89,13.71,9,19.1,9h.17c2.02,0,4.01-.52,5.76-1.51,6.09-3.52,8.24-12.55,6.04-25.43-.44-2.56-1.01-5.13-1.69-7.65,2.52-.67,5.03-1.47,7.47-2.36,12.25-4.54,19-10.91,19-17.94,0-4.84-3.22-9.43-9.31-13.29.25-1.78-.1-3.6-1.02-5.16-1.08-1.84-2.81-3.15-4.88-3.69-.66-.17-1.34-.26-2.02-.26-2.45,0-4.7,1.08-6.22,2.97-.98-.3-1.99-.59-3.02-.86.68-2.52,1.24-5.09,1.69-7.66,2.19-12.88.05-21.91-6.03-25.43-1.73-1-3.72-1.51-5.91-1.51h0ZM114.64,77.73l.37-.38c9.2-9.42,17.91-14.61,24.54-14.61,1.88,0,3.58.43,5.04,1.27,5.41,3.13,7.26,11.52,5.19,23.64-.5,2.91-1.17,5.83-1.98,8.67l-.15.51.51.13c1.72.44,3.39.91,4.97,1.41l.38.12.21-.34c1.15-1.84,3.14-2.93,5.3-2.93.53,0,1.07.07,1.58.2,1.62.42,2.98,1.45,3.82,2.89.85,1.44,1.08,3.13.66,4.75l-.1.37.33.2c6.02,3.62,9.21,7.85,9.21,12.25,0,6.25-6.35,12.04-17.87,16.32-2.77,1.02-5.63,1.9-8.5,2.62l-.52.13.15.51c.81,2.84,1.47,5.76,1.98,8.67,2.06,12.11.22,20.51-5.19,23.63-1.49.84-3.19,1.29-4.9,1.29-.05,0-.11,0-.16,0-4.99,0-11.21-2.97-18-8.6-2.27-1.89-4.46-3.93-6.52-6.05l-.37-.38-.37.38c-1.23,1.26-2.48,2.48-3.71,3.6l-.29.27.19.35c.47.9.73,1.91.73,2.92,0,3.45-2.8,6.27-6.25,6.28-.55,0-1.1-.07-1.63-.22-1.05-.28-2.01-.83-2.78-1.59l-.27-.27-.34.19c-3.75,2.08-7.16,3.13-10.14,3.13h-.17c-1.72,0-3.42-.44-4.92-1.29-6.63-3.83-7.84-15.9-3.24-32.29l.14-.51-.51-.13c-16.49-4.2-26.34-11.29-26.34-18.95s9.86-14.75,26.37-18.96l.51-.13-.14-.51c-.48-1.69-.9-3.37-1.26-5l-.09-.39h-.4c-2.75-.12-5.08-1.96-5.81-4.62-.91-3.33,1.05-6.78,4.38-7.69l.37-.1v-.39c.13-7.03,2.21-11.9,6.01-14.1,1.47-.85,3.16-1.28,5.04-1.28,6.63,0,15.35,5.19,24.54,14.61l.37.38h0ZM89.77,64.54h0c-1.58,0-2.99.35-4.18,1.04-3.2,1.84-4.96,6.12-5.1,12.36v.45s.44.07.44.07c3.41.53,5.76,3.74,5.23,7.15-.34,2.17-1.81,4.02-3.84,4.85l-.41.16.1.43c.35,1.58.77,3.23,1.24,4.88l.13.47.47-.1c5.81-1.28,11.76-2.17,17.69-2.64l.24-.02.14-.2c3.37-4.9,7.12-9.62,11.14-14.01l.33-.36-.34-.35c-2.03-2.1-4.2-4.11-6.45-5.99-6.46-5.35-12.28-8.18-16.83-8.18h0ZM82.25,76.99c.2-3.62,1.11-8.12,4.2-9.91.93-.54,2.04-.81,3.32-.81,4.09,0,9.67,2.76,15.73,7.78,1.9,1.59,3.76,3.28,5.51,5.05-3.65,4.06-7.07,8.39-10.18,12.87-5.43.45-10.89,1.25-16.23,2.38-.25-.93-.48-1.85-.7-2.75,2.12-1.2,3.58-3.31,3.96-5.73.61-3.94-1.83-7.75-5.61-8.88h0ZM139.51,64.54c-4.5,0-10.23,2.76-16.6,7.99h0s-.23.19-.23.19c-2.24,1.87-4.41,3.89-6.45,5.99l-.34.35.33.36c4.02,4.4,7.77,9.11,11.15,14.02l.14.2.24.02c5.93.48,11.88,1.37,17.69,2.65l.47.1.13-.47c.81-2.82,1.47-5.71,1.97-8.6,1.9-11.16.32-19.09-4.32-21.77-1.19-.69-2.6-1.04-4.18-1.04h0ZM118.27,79.1c1.71-1.72,3.51-3.37,5.36-4.92l.15-.12c6.06-5.02,11.64-7.79,15.73-7.79,1.27,0,2.39.27,3.32.81,3.98,2.3,5.25,9.58,3.48,19.98-.42,2.45-.97,4.91-1.62,7.32-5.34-1.13-10.79-1.93-16.22-2.39-3.11-4.49-6.54-8.82-10.19-12.88h0ZM114.64,80.37l-.38.42c-3.4,3.72-6.6,7.68-9.53,11.78l-.62.88,1.07-.06c3.06-.18,6.24-.27,9.46-.27,3.17,0,6.35.09,9.46.28l1.08.06-.63-.88c-2.93-4.1-6.13-8.07-9.53-11.79l-.38-.42h0ZM107.63,91.53c2.2-2.96,4.56-5.84,7.01-8.58,2.45,2.75,4.81,5.63,7.01,8.59-2.32-.1-4.68-.15-7.01-.15-2.36,0-4.71.05-7.01.15h0ZM114.64,94.92c-3.9,0-7.8.14-11.61.42l-.25.02-.14.21c-2.14,3.15-4.22,6.46-6.17,9.84-1.96,3.4-3.79,6.85-5.44,10.26l-.11.22.11.22c1.65,3.44,3.48,6.89,5.44,10.27,1.95,3.38,4.03,6.69,6.17,9.84l.14.21.25.02c3.81.28,7.72.42,11.61.42s7.81-.14,11.6-.42l.25-.02.14-.21c2.11-3.1,4.14-6.32,6.03-9.59h0s.15-.25.15-.25c1.96-3.39,3.78-6.84,5.44-10.27l.11-.22-.11-.22c-1.65-3.42-3.48-6.88-5.44-10.27-1.94-3.36-4.01-6.67-6.17-9.84l-.14-.21-.25-.02c-3.82-.29-7.72-.43-11.61-.43h0ZM103.74,97.02c3.58-.25,7.24-.38,10.9-.38s7.31.13,10.9.38c2.01,2.98,3.95,6.09,5.77,9.24,1.83,3.18,3.56,6.41,5.12,9.63-1.52,3.13-3.2,6.28-4.97,9.37l-.15.26c-1.82,3.15-3.76,6.26-5.78,9.25-3.56.25-7.22.38-10.89.38s-7.31-.13-10.9-.38c-2-2.97-3.94-6.08-5.77-9.25-1.83-3.17-3.55-6.41-5.12-9.63,1.56-3.2,3.28-6.44,5.12-9.62,1.83-3.17,3.77-6.28,5.77-9.25h0ZM100.47,95.55l-1.07.1c-5.01.48-10.04,1.28-14.96,2.36l-.55.12.17.54c1.52,4.8,3.35,9.55,5.44,14.14l.45.98.48-.96c1.38-2.74,2.89-5.54,4.49-8.32,1.6-2.78,3.27-5.49,4.97-8.05l.59-.9h0ZM86.11,99.42c3.6-.75,7.27-1.35,10.93-1.78-1.23,1.94-2.45,3.95-3.63,6-1.18,2.04-2.31,4.1-3.37,6.13-1.46-3.39-2.78-6.86-3.93-10.35h0ZM128.81,95.56l.59.9c1.68,2.56,3.35,5.27,4.96,8.05l.08.14h0c1.56,2.71,3.05,5.47,4.41,8.2l.48.96.45-.98c2.09-4.58,3.92-9.34,5.44-14.14l.17-.54-.55-.12c-4.92-1.08-9.95-1.87-14.96-2.36l-1.07-.1h0ZM135.68,103.32c-1.12-1.93-2.27-3.83-3.44-5.66,3.66.43,7.33,1.03,10.93,1.78-1.15,3.5-2.47,6.97-3.93,10.36-1.07-2.05-2.2-4.12-3.38-6.15l-.1-.18-.08-.14h0ZM82.13,98.56l-.47.12c-2.84.71-5.68,1.58-8.43,2.59-10.61,3.93-16.7,9.27-16.7,14.63,0,4.91,5.1,9.79,14.11,13.6h-.21s2.79,1.02,2.79,1.02c2.74,1.01,5.57,1.88,8.41,2.59l.47.12.15-.46c1.8-5.68,4.01-11.29,6.57-16.66l.11-.22-.11-.22c-2.55-5.37-4.76-10.97-6.55-16.64l-.15-.46h0ZM80.96,131.15c-2.36-.63-4.71-1.37-7-2.2l-.13-.05c-9.89-3.67-15.57-8.41-15.57-13s5.67-9.34,15.57-13.01c2.33-.86,4.74-1.61,7.15-2.25,1.69,5.19,3.72,10.31,6.04,15.24-2.33,4.94-4.37,10.07-6.06,15.27h0ZM147.15,98.56l-.15.46c-1.79,5.67-4,11.28-6.55,16.65l-.11.22.11.22c2.56,5.38,4.76,10.98,6.56,16.66l.15.46.47-.12c2.84-.71,5.67-1.59,8.42-2.59l.34-.12h0c10.4-3.92,16.36-9.2,16.36-14.5,0-3.69-2.82-7.36-8.15-10.6l-.39-.23-.28.35c-1.2,1.48-2.97,2.33-4.88,2.33-1.44,0-2.8-.48-3.93-1.39-1.71-1.37-2.58-3.58-2.27-5.75l.06-.43-.42-.13c-1.56-.49-3.19-.95-4.86-1.37l-.47-.12h0ZM142.26,115.9c2.32-4.94,4.35-10.06,6.04-15.25.93.25,1.85.51,2.75.78-.02,2.43,1.08,4.76,2.98,6.29,1.42,1.14,3.19,1.77,5.01,1.77,2.07,0,4-.77,5.49-2.18,3.04,1.98,6.49,5.02,6.49,8.6,0,4.6-5.67,9.34-15.57,13l-.21.08c-2.26.82-4.59,1.56-6.93,2.18-1.69-5.19-3.72-10.32-6.04-15.26h0ZM138.8,116.81v2.25c-1.38,2.76-2.88,5.52-4.44,8.23-1.59,2.75-3.26,5.46-4.97,8.05l-.59.9,1.07-.1c5.02-.48,10.06-1.28,14.98-2.36l.55-.12-.17-.54c-1.52-4.8-3.35-9.56-5.44-14.15l-.98-2.16h0ZM132.22,134.15c1.25-1.96,2.47-3.97,3.64-6,1.17-2.02,2.3-4.08,3.38-6.15,1.46,3.39,2.78,6.87,3.93,10.37-3.61.75-7.28,1.35-10.94,1.78h0ZM89.94,117.99l-.45.98c-2.09,4.59-3.92,9.35-5.45,14.15l-.17.54.55.12c4.84,1.07,9.79,1.85,14.73,2.33l.81,1.26v-1.74s0-.49,0-.49h-.23c-1.65-2.52-3.28-5.16-4.83-7.84-1.6-2.78-3.11-5.58-4.49-8.34l-.48-.96h0ZM86.1,132.37c1.15-3.5,2.47-6.98,3.93-10.37,1.06,2.04,2.2,4.11,3.37,6.15,1.17,2.03,2.39,4.05,3.63,5.99-3.66-.43-7.34-1.02-10.94-1.78h0ZM145.91,135.39l-.47.1c-5.81,1.29-11.77,2.18-17.71,2.65l-.24.02-.14.2c-3.38,4.9-7.13,9.61-11.14,14l-.33.36.34.35c2.04,2.11,4.21,4.12,6.46,6,6.46,5.35,12.28,8.18,16.83,8.18,1.58,0,2.99-.35,4.18-1.04,4.64-2.68,6.22-10.62,4.32-21.77-.5-2.89-1.16-5.78-1.97-8.59l-.13-.47h0ZM128.44,139.82c5.44-.46,10.9-1.27,16.24-2.4.65,2.41,1.2,4.87,1.62,7.31,1.77,10.4.5,17.68-3.48,19.98-.93.54-2.04.81-3.32.81-4.09,0-9.67-2.76-15.73-7.78-1.91-1.59-3.77-3.29-5.53-5.06,3.65-4.06,7.07-8.38,10.19-12.86h0ZM83.36,135.4l-.13.47c-.8,2.81-1.46,5.69-1.96,8.57-1.9,11.16-.32,19.09,4.32,21.77,1.21.7,2.63,1.05,4.2,1.05,2.6,0,5.64-.95,9.05-2.81l.4-.22-.16-.42c-.6-1.56-.57-3.26.11-4.79s1.91-2.71,3.47-3.31c.72-.28,1.49-.42,2.26-.42,1.39,0,2.76.47,3.86,1.33l.34.27.32-.29c1.2-1.1,2.42-2.29,3.62-3.53l.34-.35-.33-.36c-4.02-4.39-7.76-9.09-11.14-13.99l-.14-.2-.24-.02c-5.94-.47-11.89-1.36-17.71-2.64l-.47-.1h0ZM89.79,165.54c-1.27,0-2.39-.28-3.34-.82-3.98-2.3-5.25-9.58-3.48-19.98.42-2.44.97-4.89,1.62-7.3,5.34,1.13,10.8,1.93,16.24,2.39,3.11,4.47,6.54,8.8,10.18,12.85-.68.69-1.37,1.35-2.05,1.99-1.23-.72-2.62-1.1-4.05-1.1-.99,0-1.96.18-2.89.54-1.99.77-3.56,2.27-4.42,4.23-.71,1.6-.87,3.39-.47,5.07-2.79,1.42-5.26,2.14-7.35,2.14h0ZM125.16,138.34l-1.08.06c-3.12.18-6.3.28-9.45.28s-6.39-.09-9.46-.27l-1.08-.06.63.88c2.92,4.1,6.13,8.06,9.52,11.78l.38.42.38-.42c3.39-3.72,6.6-7.68,9.53-11.78l.63-.88h0ZM114.64,140.41c2.33,0,4.67-.05,7-.15-2.2,2.96-4.56,5.84-7.01,8.58-2.45-2.74-4.8-5.62-7-8.58,2.3.1,4.65.15,7.01.15h0Z"/>
        </g>
      </g>
      <g>
        <g>
          <path class="st0" d="M104.72,111.43c1.46-1.51,3.49-2.34,5.59-2.29l-2.45,14.7s0,0,0,0c-.12.74.38,1.44,1.12,1.56.07.01.15.02.23.02.66,0,1.23-.48,1.34-1.14l2.53-15.18h5.65v12.23c-.08,1.84,1.14,3.49,2.93,3.96.24.05.49.08.74.08,1.1,0,2.96-.5,4.36-3.45,0,0,0,0,0,0,.32-.68.03-1.49-.65-1.81-.68-.32-1.49-.03-1.81.65-.74,1.56-1.57,1.99-2.05,1.89-.53-.21-.86-.74-.8-1.31v-12.23h4.08c.75,0,1.36-.61,1.36-1.36s-.61-1.36-1.36-1.36h-13.59c-2.81,0-6,0-9.12,3.12-.51.53-.51,1.36,0,1.89.52.54,1.38.55,1.92.03Z"/>
          <path class="st1" d="M125.5,106.39c.75,0,1.36.61,1.36,1.36s-.61,1.36-1.36,1.36h-4.08v12.23c-.05.57.27,1.1.8,1.31.04,0,.09.01.14.01.49,0,1.23-.49,1.91-1.9.23-.49.72-.78,1.23-.78.19,0,.39.04.58.13.68.32.97,1.13.65,1.81,0,0,0,0,0,0-1.4,2.95-3.26,3.45-4.36,3.45,0,0-.01,0-.02,0-.24,0-.48-.03-.72-.08-1.78-.47-3-2.12-2.93-3.96v-12.23h-5.65l-2.53,15.18c-.11.65-.67,1.13-1.34,1.14,0,0,0,0,0,0-.07,0-.15,0-.22-.02-.74-.12-1.24-.82-1.12-1.56,0,0,0,0,0,0l2.45-14.7c-.05,0-.1,0-.16,0-2.04,0-4,.83-5.43,2.29-.26.25-.6.38-.94.38s-.71-.14-.98-.41c-.51-.53-.51-1.36,0-1.89,3.12-3.12,6.3-3.12,9.12-3.12h13.59M125.5,105.87h-13.59c-2.91,0-6.21,0-9.48,3.27-.71.74-.71,1.88,0,2.61.36.37.84.57,1.35.57s.95-.19,1.3-.53c1.23-1.26,2.88-2.02,4.62-2.14l-2.34,14.04h0s0,.04,0,.04h0c-.17,1.03.52,2,1.54,2.17.1.02.2.03.3.03.93,0,1.7-.66,1.85-1.57l2.46-14.74h4.69v11.72c-.09,2.05,1.31,3.93,3.31,4.46.29.06.57.09.85.09,1.15,0,3.3-.49,4.84-3.75.22-.46.24-.97.07-1.44-.17-.47-.51-.85-.96-1.06-.25-.12-.52-.18-.8-.18-.72,0-1.39.42-1.7,1.07-.6,1.27-1.21,1.61-1.44,1.61,0,0,0,0,0,0-.29-.13-.46-.44-.43-.76v-.02s0-.02,0-.02v-11.72h3.56c1.03,0,1.87-.84,1.87-1.87s-.84-1.87-1.87-1.87h0Z"/>
        </g>
        <g>
          <path class="st1" d="M125.5,106.39c.75,0,1.36.61,1.36,1.36s-.61,1.36-1.36,1.36h-4.08v12.23c-.05.57.27,1.1.8,1.31.04,0,.09.01.14.01.49,0,1.23-.49,1.91-1.9.23-.49.72-.78,1.23-.78.19,0,.39.04.58.13.68.32.97,1.13.65,1.81,0,0,0,0,0,0-1.4,2.95-3.26,3.45-4.36,3.45,0,0-.01,0-.02,0-.24,0-.48-.03-.72-.08-1.78-.47-3-2.12-2.93-3.96v-12.23h-5.65l-2.53,15.18c-.11.65-.67,1.13-1.34,1.14,0,0,0,0,0,0-.07,0-.15,0-.22-.02-.74-.12-1.24-.82-1.12-1.56,0,0,0,0,0,0l2.45-14.7c-.05,0-.1,0-.16,0-2.04,0-4,.83-5.43,2.29-.26.25-.6.38-.94.38s-.71-.14-.98-.41c-.51-.53-.51-1.36,0-1.89,3.12-3.12,6.3-3.12,9.12-3.12h13.59M125.5,105.69h-13.59c-2.8,0-6.29,0-9.61,3.32-.78.81-.78,2.07,0,2.87.39.41.92.63,1.48.63s1.04-.21,1.43-.58c1.14-1.18,2.67-1.9,4.27-2.06l-2.3,13.79h0s-.01.08-.01.08c-.09.54.04,1.08.36,1.53.32.45.79.74,1.34.83.11.02.22.03.33.03,1.02,0,1.87-.73,2.03-1.72l2.43-14.59h4.35v11.53c-.09,2.13,1.36,4.09,3.45,4.63.31.07.61.1.9.1,1.2,0,3.42-.5,5.01-3.85.24-.51.27-1.07.08-1.58-.19-.52-.56-.93-1.06-1.17-.28-.13-.57-.2-.88-.2-.79,0-1.52.46-1.86,1.18-.54,1.14-1.05,1.46-1.24,1.5-.19-.11-.31-.33-.29-.55v-.03s0-.03,0-.03v-11.53h3.38c1.13,0,2.06-.92,2.06-2.06s-.92-2.06-2.06-2.06h0Z"/>
          <path class="st1" d="M125.5,105.69c1.13,0,2.06.92,2.06,2.06s-.92,2.06-2.06,2.06h-3.38v11.6c-.02.23.09.44.28.55.18-.04.7-.36,1.24-1.5.34-.72,1.07-1.18,1.86-1.18.3,0,.6.07.88.2.5.23.87.65,1.06,1.17.19.52.16,1.08-.08,1.58-1.59,3.35-3.81,3.85-5.01,3.85-.29,0-.58-.03-.9-.1-2.09-.55-3.54-2.51-3.45-4.63v-11.53h-4.35l-2.43,14.59c-.17.99-1.02,1.72-2.03,1.72-.11,0-.23,0-.33-.03-.54-.09-1.02-.38-1.34-.83-.32-.45-.45-.99-.36-1.53v-.07s.01,0,.01,0l2.3-13.79c-1.6.16-3.13.89-4.27,2.06-.39.37-.89.58-1.43.58-.56,0-1.09-.22-1.48-.63-.77-.8-.77-2.06,0-2.87,3.32-3.32,6.81-3.32,9.61-3.32h13.59M103.77,111.81c.34,0,.68-.13.94-.38,1.43-1.47,3.39-2.29,5.43-2.29.05,0,.1,0,.16,0l-2.45,14.7s0,0,0,0c-.12.74.38,1.44,1.12,1.56.07.01.15.02.22.02,0,0,0,0,0,0,.66,0,1.23-.48,1.34-1.14l2.53-15.18h5.65v12.23c-.08,1.84,1.14,3.49,2.93,3.96.24.05.48.08.72.08,0,0,.01,0,.02,0,1.1,0,2.96-.5,4.36-3.45,0,0,0,0,0,0,.32-.68.03-1.49-.65-1.81-.19-.09-.38-.13-.58-.13-.51,0-1,.29-1.23.78-.67,1.42-1.42,1.9-1.91,1.9-.05,0-.1,0-.14-.01-.53-.21-.86-.74-.8-1.31v-12.23h4.08c.75,0,1.36-.61,1.36-1.36s-.61-1.36-1.36-1.36h-13.59c-2.81,0-6,0-9.12,3.12-.51.53-.51,1.36,0,1.89.27.28.62.41.98.41M125.5,105.17h-13.59c-2.9,0-6.5,0-9.98,3.47-.98,1.01-.98,2.59-.01,3.59.49.51,1.15.79,1.85.79s1.31-.26,1.79-.72c.9-.93,2.05-1.56,3.29-1.82l-2.17,13.03h0s-.01.07-.01.07v.07c-.12.67.04,1.35.44,1.91.4.56.99.93,1.67,1.04.13.02.28.03.42.03,1.27,0,2.33-.91,2.54-2.15l2.36-14.16h3.4v11.02c-.1,2.36,1.51,4.52,3.83,5.13.36.08.69.12,1.03.12,1.31,0,3.76-.54,5.47-4.14.3-.63.33-1.33.1-1.98-.23-.65-.7-1.16-1.32-1.46-.35-.16-.71-.25-1.1-.25-.99,0-1.9.58-2.33,1.48-.2.42-.39.71-.54.89v-10.81h2.86c1.42,0,2.57-1.15,2.57-2.57s-1.15-2.57-2.57-2.57h0ZM103.77,111.29c-.23,0-.45-.09-.61-.26-.32-.33-.32-.84,0-1.17,2.96-2.96,6.03-2.96,8.75-2.96h13.59c.47,0,.84.38.84.84s-.38.84-.84.84h-4.59v12.73c-.06.78.4,1.52,1.13,1.81h.04s.04.02.04.02c.08.02.16.03.25.03.4,0,1.43-.21,2.37-2.2.14-.3.44-.49.76-.49.12,0,.25.03.36.08.2.1.36.27.43.48.08.21.07.44-.03.64-1.24,2.62-2.81,3.17-3.9,3.17h0c-.22,0-.43-.02-.63-.07-1.52-.4-2.59-1.84-2.52-3.43v-12.25s0-.52,0-.52h-6.6l-.07.43-2.53,15.18c-.07.41-.42.7-.83.71h0s-.09,0-.14-.01c-.22-.04-.42-.16-.55-.34-.13-.18-.18-.4-.15-.61h0s0-.01,0-.01h0s2.45-14.71,2.45-14.71l.1-.59h-.6c-.06-.01-.11-.01-.17-.01-2.17,0-4.29.89-5.8,2.45-.15.14-.35.23-.57.23h0Z"/>
        </g>
      </g>
    </g>
  </g>
</svg>